<svg width="244" height="164" viewBox="0 0 244 164" fill="none" xmlns="http://www.w3.org/2000/svg">
<path d="M234.145 163.744H19.9869C15.1429 163.744 10.8949 159.781 10.5459 154.937L0.0229229 8.80699C-0.326077 3.96299 3.35193 0 8.19593 0H222.354C227.198 0 231.446 3.96299 231.795 8.80699L242.318 154.937C242.666 159.781 238.989 163.744 234.145 163.744Z" fill="#407BFF"/>
<path d="M234.966 163.744H20.8079C15.9639 163.744 11.7159 159.781 11.3669 154.937L0.843937 8.80699C0.494937 3.96299 4.17293 0 9.01693 0H223.175C228.019 0 232.267 3.96299 232.616 8.80699L243.139 154.937C243.487 159.781 239.81 163.744 234.966 163.744Z" fill="#FF5631"/>
<path opacity="0.5" d="M234.966 163.744H20.8079C15.9639 163.744 11.7159 159.781 11.3669 154.937L0.843937 8.80699C0.494937 3.96299 4.17293 0 9.01693 0H223.175C228.019 0 232.267 3.96299 232.616 8.80699L243.139 154.937C243.487 159.781 239.81 163.744 234.966 163.744Z" fill="white"/>
<path d="M223.492 4.40405H9.33394C9.09194 4.40405 8.85294 4.41406 8.61694 4.43306C3.14294 4.88406 4.26093 13.2111 9.78593 13.2111H224.309C229.834 13.2111 229.753 4.88406 224.214 4.43306C223.975 4.41406 223.734 4.40405 223.492 4.40405Z" fill="#FF5631"/>
<path d="M14.9119 8.80795C14.9919 9.92295 14.1539 10.827 13.0379 10.827C11.9229 10.827 10.9539 9.92295 10.8739 8.80795C10.7939 7.69295 11.6319 6.78894 12.7479 6.78894C13.8639 6.78894 14.8319 7.69195 14.9119 8.80795Z" fill="#212529"/>
<path d="M21.7799 8.80795C21.8599 9.92295 21.0219 10.827 19.9059 10.827C18.7909 10.827 17.8219 9.92295 17.7419 8.80795C17.6619 7.69295 18.4999 6.78894 19.6159 6.78894C20.7309 6.78894 21.6999 7.69195 21.7799 8.80795Z" fill="#212529"/>
<path d="M28.6479 8.80795C28.7279 9.92295 27.8889 10.827 26.7739 10.827C25.6589 10.827 24.6899 9.92295 24.6089 8.80795C24.5289 7.69295 25.3679 6.78894 26.4829 6.78894C27.5979 6.78894 28.5669 7.69195 28.6479 8.80795Z" fill="#212529"/>
<path d="M229.288 149.16H24.3849C22.6219 149.16 21.0889 147.73 20.9619 145.967L12.3079 25.7939C12.1809 24.0309 13.5079 22.601 15.2709 22.601H220.174C221.937 22.601 223.47 24.0299 223.597 25.7939L232.251 145.967C232.378 147.73 231.051 149.16 229.288 149.16Z" fill="#212529"/>
<path d="M142.964 103.381L139.629 57.062L129.521 50.978H101.717L105.491 103.381H142.964Z" fill="#212529"/>
<path d="M142.964 103.866H105.491C105.237 103.866 105.026 103.67 105.008 103.416L101.234 51.013C101.224 50.879 101.271 50.746 101.363 50.648C101.455 50.549 101.583 50.494 101.718 50.494H129.522C129.61 50.494 129.697 50.518 129.772 50.564L139.879 56.647C140.014 56.728 140.101 56.87 140.112 57.027L143.447 103.346C143.457 103.48 143.41 103.613 143.318 103.711C143.227 103.81 143.098 103.866 142.964 103.866ZM105.942 102.897H142.443L139.163 57.348L129.387 51.463H102.238L105.942 102.897Z" fill="#FF5631"/>
<path d="M139.629 57.062L129.521 50.978L133.232 59.038L139.629 57.062Z" fill="#212529"/>
<path d="M133.232 59.522C133.047 59.522 132.873 59.415 132.792 59.24L129.081 51.181C128.992 50.988 129.039 50.759 129.198 50.617C129.356 50.475 129.589 50.454 129.771 50.563L139.878 56.647C140.042 56.745 140.132 56.931 140.109 57.121C140.086 57.311 139.954 57.469 139.771 57.525L133.375 59.501C133.328 59.515 133.28 59.522 133.232 59.522ZM130.62 52.205L133.495 58.449L138.451 56.918L130.62 52.205Z" fill="#FF5631"/>
<path d="M117.403 74.588C117.487 75.757 116.608 76.7049 115.438 76.7049C114.268 76.7049 113.253 75.757 113.169 74.588C113.085 73.419 113.964 72.4709 115.133 72.4709C116.302 72.4709 117.319 73.419 117.403 74.588Z" fill="#FF5631"/>
<path d="M131.139 74.588C131.223 75.757 130.344 76.7049 129.174 76.7049C128.005 76.7049 126.989 75.757 126.904 74.588C126.82 73.419 127.699 72.4709 128.869 72.4709C130.039 72.4719 131.055 73.419 131.139 74.588Z" fill="#FF5631"/>
<path d="M135.014 88.318C134.762 88.318 134.55 88.123 134.531 87.868C134.286 84.464 128.948 81.695 122.631 81.695C118.446 81.695 114.689 82.939 112.825 84.942C111.996 85.833 111.613 86.793 111.685 87.798C111.704 88.065 111.503 88.297 111.236 88.316C110.968 88.333 110.737 88.134 110.718 87.867C110.627 86.601 111.11 85.361 112.115 84.281C114.156 82.087 118.185 80.725 122.631 80.725C129.56 80.725 135.212 83.832 135.498 87.797C135.517 88.064 135.316 88.296 135.049 88.315C135.037 88.318 135.025 88.318 135.014 88.318Z" fill="#FF5631"/>
<path d="M109.601 70.3C109.483 70.3 109.365 70.257 109.271 70.171C109.075 69.989 109.063 69.682 109.245 69.486L111.369 67.198C111.551 67.001 111.858 66.991 112.054 67.172C112.25 67.354 112.261 67.661 112.08 67.857L109.957 70.145C109.861 70.248 109.731 70.3 109.601 70.3Z" fill="#FF5631"/>
<path d="M134.018 70.3C133.9 70.3 133.781 70.257 133.687 70.17L131.234 67.882C131.038 67.7 131.028 67.393 131.21 67.197C131.392 67.001 131.699 66.991 131.895 67.173L134.348 69.461C134.544 69.643 134.554 69.95 134.372 70.146C134.277 70.248 134.148 70.3 134.018 70.3Z" fill="#FF5631"/>
<path d="M98.6909 113.736H100.951L104.212 118.07L103.9 113.736H106.181L106.745 121.569H104.463L101.22 117.268L101.53 121.569H99.2539L98.6909 113.736Z" fill="#FF5631"/>
<path d="M107.768 117.657C107.676 116.378 107.96 115.383 108.622 114.67C109.283 113.958 110.25 113.601 111.521 113.601C112.825 113.601 113.854 113.951 114.61 114.651C115.366 115.351 115.789 116.331 115.88 117.592C115.946 118.507 115.846 119.258 115.58 119.844C115.314 120.43 114.902 120.886 114.343 121.212C113.784 121.538 113.07 121.701 112.201 121.701C111.318 121.701 110.576 121.56 109.977 121.279C109.378 120.998 108.877 120.552 108.473 119.943C108.069 119.335 107.834 118.573 107.768 117.657ZM110.189 117.668C110.246 118.459 110.434 119.027 110.752 119.372C111.071 119.718 111.483 119.89 111.989 119.89C112.509 119.89 112.899 119.721 113.16 119.382C113.421 119.044 113.519 118.436 113.456 117.56C113.403 116.823 113.215 116.284 112.893 115.944C112.571 115.604 112.155 115.434 111.646 115.434C111.158 115.434 110.779 115.607 110.508 115.952C110.238 116.299 110.132 116.87 110.189 117.668Z" fill="#FF5631"/>
<path d="M120.586 113.736H124.182C124.891 113.736 125.47 113.832 125.921 114.024C126.371 114.216 126.752 114.492 127.063 114.852C127.374 115.212 127.611 115.63 127.773 116.108C127.936 116.585 128.036 117.091 128.075 117.625C128.135 118.462 128.087 119.111 127.929 119.573C127.772 120.034 127.535 120.421 127.219 120.732C126.903 121.044 126.555 121.251 126.174 121.354C125.654 121.497 125.178 121.568 124.747 121.568H121.151L120.586 113.736ZM123.134 115.51L123.442 119.79H124.035C124.541 119.79 124.896 119.734 125.102 119.622C125.308 119.51 125.461 119.314 125.562 119.034C125.663 118.754 125.691 118.301 125.646 117.674C125.586 116.844 125.41 116.276 125.117 115.97C124.824 115.664 124.364 115.511 123.737 115.511H123.134V115.51Z" fill="#FF5631"/>
<path d="M133.882 120.275H131.134L130.845 121.568H128.374L130.754 113.735H133.394L136.901 121.568H134.366L133.882 120.275ZM133.258 118.582L132.19 115.766L131.537 118.582H133.258Z" fill="#FF5631"/>
<path d="M135.803 113.736H143.16L143.299 115.67H140.831L141.256 121.569H138.836L138.411 115.67H135.943L135.803 113.736Z" fill="#FF5631"/>
<path d="M148.799 120.275H146.051L145.762 121.568H143.291L145.671 113.735H148.311L151.818 121.568H149.283L148.799 120.275ZM148.175 118.582L147.108 115.766L146.455 118.582H148.175Z" fill="#FF5631"/>
</svg>
