<svg width="444" height="386" viewBox="0 0 444 386" fill="none" xmlns="http://www.w3.org/2000/svg">
<path d="M432.373 375.696C432.373 375.85 432.322 376.005 432.208 376.159C423.072 389.267 28.885 389.267 19.748 376.159C19.635 376.005 19.583 375.85 19.583 375.696C52.538 352.762 132.524 336.578 225.978 336.578C319.432 336.578 399.418 352.762 432.373 375.696Z" fill="#FFA901"/>
<path d="M432.209 376.159C423.073 389.267 28.886 389.267 19.749 376.159C67.067 361.168 141.837 351.486 225.979 351.486C310.121 351.487 384.89 361.168 432.209 376.159Z" fill="#FDCA23"/>
<path d="M0 281.571C9.454 290.418 22.39 295.496 36.337 294.648C50.273 293.801 62.499 287.192 70.822 277.265C61.348 268.43 48.422 263.351 34.486 264.198C20.55 265.045 8.324 271.654 0 281.571Z" fill="#452B99"/>
<path d="M9.457 282.032L79.634 277.765C80.959 277.684 80.834 275.631 79.509 275.711L9.332 279.978C8.007 280.058 8.132 282.112 9.457 282.032Z" fill="white"/>
<path d="M13.021 274.41C15.166 276.462 17.31 278.513 19.454 280.564L20.852 280.479C18.469 278.199 16.086 275.919 13.702 273.639C13.223 273.18 12.543 273.952 13.021 274.41Z" fill="white"/>
<path d="M21.636 272.227C24.324 274.799 27.012 277.37 29.7 279.941L31.099 279.856C28.172 277.056 25.245 274.256 22.318 271.456C21.838 270.997 21.158 271.769 21.636 272.227Z" fill="white"/>
<path d="M30.139 269.197L40.673 279.274L42.062 279.19C42.053 279.18 42.051 279.17 42.041 279.16C38.301 275.582 34.561 272.004 30.82 268.426C30.34 267.967 29.66 268.739 30.139 269.197Z" fill="white"/>
<path d="M41.045 271.047C43.733 273.618 46.421 276.19 49.109 278.761L50.507 278.676C47.58 275.876 44.653 273.076 41.727 270.276C41.247 269.817 40.567 270.589 41.045 271.047Z" fill="white"/>
<path d="M53.195 271.967C55.34 274.018 57.484 276.07 59.628 278.121L61.026 278.036C58.643 275.756 56.259 273.476 53.876 271.196C53.397 270.738 52.716 271.51 53.195 271.967Z" fill="white"/>
<path d="M17.202 287.247C19.082 284.951 20.962 282.655 22.842 280.358L24.24 280.273C22.15 282.825 20.061 285.377 17.972 287.928C17.551 288.443 16.783 287.759 17.202 287.247Z" fill="white"/>
<path d="M26.018 288.37C28.375 285.492 30.732 282.614 33.088 279.736L34.486 279.651C31.92 282.785 29.354 285.919 26.788 289.053C26.367 289.566 25.599 288.882 26.018 288.37Z" fill="white"/>
<path d="M34.825 290.348L44.061 279.068L45.45 278.984C45.443 278.994 45.442 279.005 45.433 279.016C42.154 283.021 38.875 287.025 35.596 291.03C35.175 291.544 34.406 290.86 34.825 290.348Z" fill="white"/>
<path d="M45.427 287.19C47.784 284.312 50.14 281.434 52.497 278.555L53.895 278.47C51.329 281.604 48.763 284.738 46.197 287.872C45.776 288.386 45.007 287.702 45.427 287.19Z" fill="white"/>
<path d="M57.376 284.804C59.256 282.508 61.136 280.212 63.016 277.916L64.415 277.831C62.325 280.383 60.236 282.935 58.146 285.486C57.725 286.001 56.956 285.317 57.376 284.804Z" fill="white"/>
<path d="M20.456 214.389C18.026 227.106 20.64 240.755 28.805 252.094C36.964 263.424 49.08 270.231 61.918 271.966C64.328 259.238 61.719 245.597 53.56 234.267C45.402 222.936 33.286 216.13 20.456 214.389Z" fill="#452B99"/>
<path d="M25.117 222.63L66.203 279.683C66.978 280.76 68.648 279.557 67.873 278.48L26.787 221.427C26.011 220.35 24.341 221.553 25.117 222.63Z" fill="#FFF6E5"/>
<path d="M33.464 221.573C32.875 224.482 32.286 227.39 31.696 230.299L32.515 231.436C33.17 228.204 33.824 224.971 34.479 221.739C34.612 221.086 33.596 220.923 33.464 221.573Z" fill="#FFF6E5"/>
<path d="M39.911 227.691C39.173 231.337 38.434 234.983 37.696 238.629L38.515 239.766C39.319 235.796 40.123 231.826 40.927 227.857C41.058 227.204 40.042 227.041 39.911 227.691Z" fill="#FFF6E5"/>
<path d="M47.013 233.261L44.119 247.549L44.932 248.678C44.935 248.666 44.943 248.658 44.946 248.645C45.973 243.572 47.001 238.499 48.029 233.426C48.161 232.774 47.145 232.612 47.013 233.261Z" fill="#FFF6E5"/>
<path d="M51.273 243.47C50.535 247.116 49.796 250.762 49.058 254.408L49.877 255.545C50.681 251.575 51.485 247.605 52.289 243.636C52.421 242.983 51.405 242.82 51.273 243.47Z" fill="#FFF6E5"/>
<path d="M56.984 254.233C56.395 257.142 55.806 260.05 55.216 262.959L56.035 264.096C56.69 260.863 57.345 257.631 57.999 254.398C58.131 253.747 57.115 253.584 56.984 254.233Z" fill="#FFF6E5"/>
<path d="M24.844 231.963C27.789 232.326 30.735 232.69 33.68 233.053L34.499 234.19C31.226 233.786 27.952 233.382 24.679 232.979C24.019 232.897 24.187 231.882 24.844 231.963Z" fill="#FFF6E5"/>
<path d="M28.603 240.017C32.295 240.472 35.987 240.928 39.679 241.383L40.498 242.52C36.478 242.024 32.458 241.528 28.438 241.032C27.778 240.951 27.946 239.935 28.603 240.017Z" fill="#FFF6E5"/>
<path d="M31.634 248.519L46.103 250.304L46.916 251.433C46.903 251.432 46.893 251.437 46.88 251.436C41.743 250.802 36.606 250.169 31.469 249.535C30.809 249.453 30.977 248.437 31.634 248.519Z" fill="#FFF6E5"/>
<path d="M39.966 255.795C43.658 256.25 47.35 256.706 51.042 257.161L51.861 258.298C47.841 257.802 43.821 257.306 39.801 256.81C39.141 256.73 39.308 255.714 39.966 255.795Z" fill="#FFF6E5"/>
<path d="M48.364 264.624C51.309 264.987 54.255 265.351 57.2 265.714L58.019 266.851C54.746 266.447 51.472 266.044 48.199 265.64C47.539 265.558 47.707 264.543 48.364 264.624Z" fill="#FFF6E5"/>
<path d="M181.826 10.912C177.992 23.279 179.067 37.134 185.916 49.313C192.76 61.483 204.041 69.598 216.605 72.755C220.42 60.375 219.349 46.529 212.505 34.359C205.661 22.189 194.382 14.074 181.826 10.912Z" fill="#452B99"/>
<path d="M185.538 19.622L220.002 80.903C220.653 82.06 222.446 81.051 221.796 79.894L187.332 18.613C186.681 17.456 184.888 18.465 185.538 19.622Z" fill="white"/>
<path d="M193.951 19.503C193.041 22.328 192.131 25.152 191.221 27.977L191.908 29.198C192.919 26.059 193.931 22.919 194.942 19.78C195.146 19.147 194.154 18.872 193.951 19.503Z" fill="white"/>
<path d="M199.675 26.302C198.534 29.843 197.394 33.383 196.253 36.924L196.94 38.145C198.182 34.29 199.424 30.434 200.666 26.579C200.87 25.946 199.878 25.671 199.675 26.302Z" fill="white"/>
<path d="M206.112 32.629L201.642 46.505L202.324 47.718C202.329 47.706 202.337 47.699 202.342 47.687C203.929 42.76 205.516 37.834 207.103 32.907C207.307 32.274 206.315 31.999 206.112 32.629Z" fill="white"/>
<path d="M209.207 43.25C208.066 46.791 206.926 50.332 205.785 53.872L206.472 55.093C207.714 51.238 208.956 47.382 210.198 43.527C210.401 42.895 209.41 42.62 209.207 43.25Z" fill="white"/>
<path d="M213.68 54.583C212.77 57.408 211.86 60.232 210.95 63.057L211.637 64.278C212.648 61.139 213.66 57.999 214.671 54.86C214.875 54.228 213.884 53.953 213.68 54.583Z" fill="white"/>
<path d="M184.226 28.866C187.112 29.556 189.999 30.245 192.885 30.935L193.572 32.156C190.364 31.39 187.156 30.623 183.948 29.857C183.302 29.703 183.582 28.713 184.226 28.866Z" fill="white"/>
<path d="M187.063 37.289C190.681 38.153 194.299 39.018 197.917 39.882L198.604 41.103C194.665 40.162 190.725 39.22 186.785 38.279C186.139 38.125 186.419 37.135 187.063 37.289Z" fill="white"/>
<path d="M189.126 46.076L203.305 49.464L203.987 50.677C203.974 50.675 203.964 50.679 203.951 50.676C198.917 49.473 193.883 48.27 188.848 47.067C188.202 46.913 188.482 45.922 189.126 46.076Z" fill="white"/>
<path d="M196.594 54.237C200.212 55.101 203.83 55.966 207.448 56.83L208.135 58.051C204.196 57.11 200.256 56.168 196.317 55.227C195.67 55.073 195.95 54.083 196.594 54.237Z" fill="white"/>
<path d="M203.955 63.947C206.841 64.637 209.728 65.326 212.614 66.016L213.301 67.237C210.093 66.47 206.885 65.704 203.677 64.938C203.031 64.783 203.311 63.793 203.955 63.947Z" fill="white"/>
<path d="M251.201 0C238.698 3.363 227.558 11.672 220.919 23.966C214.285 36.251 213.448 50.123 217.49 62.432C229.994 59.046 241.129 50.746 247.763 38.461C254.397 26.176 255.233 12.303 251.201 0Z" fill="#452B99"/>
<path d="M245.82 7.789L212.415 69.653C211.785 70.821 213.595 71.798 214.226 70.631L247.631 8.767C248.261 7.599 246.45 6.622 245.82 7.789Z" fill="#FFF6E5"/>
<path d="M250.413 14.839C247.539 15.578 244.665 16.317 241.791 17.057L241.125 18.29C244.319 17.469 247.513 16.647 250.708 15.825C251.352 15.659 251.055 14.674 250.413 14.839Z" fill="#FFF6E5"/>
<path d="M247.722 23.309C244.119 24.236 240.517 25.162 236.914 26.089L236.248 27.322C240.171 26.313 244.093 25.304 248.016 24.295C248.66 24.129 248.363 23.144 247.722 23.309Z" fill="#FFF6E5"/>
<path d="M245.81 32.13L231.691 35.761L231.03 36.985C231.043 36.983 231.053 36.986 231.066 36.983C236.079 35.694 241.092 34.405 246.104 33.115C246.748 32.95 246.451 31.965 245.81 32.13Z" fill="#FFF6E5"/>
<path d="M238.483 40.418C234.88 41.344 231.278 42.271 227.675 43.198L227.009 44.431C230.932 43.422 234.855 42.413 238.777 41.404C239.422 41.239 239.125 40.253 238.483 40.418Z" fill="#FFF6E5"/>
<path d="M231.291 50.254C228.417 50.993 225.543 51.732 222.669 52.472L222.003 53.705C225.197 52.884 228.391 52.062 231.586 51.24C232.229 51.074 231.932 50.089 231.291 50.254Z" fill="#FFF6E5"/>
<path d="M237.303 11.617C238.261 14.426 239.22 17.234 240.178 20.043L239.512 21.276C238.447 18.155 237.382 15.033 236.317 11.912C236.102 11.282 237.089 10.99 237.303 11.617Z" fill="#FFF6E5"/>
<path d="M231.697 18.513C232.898 22.034 234.1 25.554 235.301 29.075L234.635 30.308C233.327 26.475 232.019 22.641 230.711 18.808C230.496 18.179 231.483 17.887 231.697 18.513Z" fill="#FFF6E5"/>
<path d="M225.37 24.951L230.078 38.748L229.417 39.972C229.412 39.96 229.403 39.953 229.399 39.941C227.727 35.042 226.056 30.144 224.384 25.245C224.169 24.616 225.156 24.324 225.37 24.951Z" fill="#FFF6E5"/>
<path d="M222.458 35.623C223.659 39.144 224.861 42.664 226.062 46.185L225.396 47.418C224.088 43.585 222.78 39.751 221.472 35.918C221.258 35.288 222.244 34.996 222.458 35.623Z" fill="#FFF6E5"/>
<path d="M218.18 47.032C219.138 49.841 220.097 52.649 221.055 55.458L220.389 56.691C219.324 53.57 218.259 50.448 217.194 47.327C216.979 46.697 217.966 46.405 218.18 47.032Z" fill="#FFF6E5"/>
<path d="M274.813 367.64H75.359C65.388 367.64 57.305 359.557 57.305 349.586V70.574C57.305 60.603 65.388 52.52 75.359 52.52H274.813C284.784 52.52 292.867 60.603 292.867 70.574V349.586C292.867 359.557 284.784 367.64 274.813 367.64Z" fill="#0981F2"/>
<path d="M286.313 56.669L280.86 64.19L69.382 356.024L63.929 363.555C59.885 360.242 57.303 355.211 57.303 349.583V70.57C57.303 60.6 65.39 52.523 75.36 52.523H274.809C279.182 52.523 283.185 54.077 286.313 56.669Z" fill="#0064AB"/>
<path d="M75.359 358.38C70.51 358.38 66.565 354.435 66.565 349.586V70.574C66.565 65.725 70.51 61.78 75.359 61.78H274.813C279.662 61.78 283.607 65.725 283.607 70.574V349.585C283.607 354.434 279.662 358.379 274.813 358.379H75.359V358.38Z" fill="white"/>
<path d="M280.86 64.191L69.382 356.024C67.643 354.419 66.563 352.125 66.563 349.583V70.57C66.563 65.724 70.514 61.783 75.36 61.783H274.809C277.156 61.783 279.285 62.699 280.86 64.191Z" fill="#F2F2F2"/>
<path d="M221.112 68.461L215.124 48.84C214.579 47.081 212.953 45.877 211.111 45.877H181.417C182.518 44.385 183.115 42.482 182.919 40.414C182.569 36.792 179.647 33.798 176.025 33.376C171.251 32.831 167.207 36.535 167.207 41.196C167.207 42.955 167.794 44.571 168.761 45.877H139.047C137.205 45.877 135.58 47.081 135.045 48.851L129.057 68.462C128.234 71.158 130.25 73.874 133.07 73.874H217.099C219.919 73.872 221.935 71.156 221.112 68.461ZM175.09 37.851C176.942 37.851 178.434 39.343 178.434 41.195C178.434 43.047 176.942 44.549 175.09 44.549C173.238 44.549 171.736 43.047 171.736 41.195C171.736 39.343 173.238 37.851 175.09 37.851Z" fill="#FFA901"/>
<path d="M203.498 68.461L197.51 48.84C196.975 47.081 195.349 45.877 193.508 45.877H139.049C137.207 45.877 135.582 47.081 135.047 48.851L129.059 68.462C128.236 71.158 130.252 73.874 133.072 73.874H199.497C202.314 73.872 204.321 71.156 203.498 68.461Z" fill="#FDCA23"/>
<path d="M218.709 60.588L217.406 56.317H132.765L131.462 60.588H218.709Z" fill="#FFA901"/>
<path d="M98.948 116.539H84.886C80.624 116.539 77.169 113.084 77.169 108.822V94.76C77.169 90.498 80.624 87.043 84.886 87.043H98.948C103.21 87.043 106.665 90.498 106.665 94.76V108.822C106.665 113.084 103.21 116.539 98.948 116.539Z" fill="#FF2E56"/>
<path d="M89.533 109.086L81.542 101.05L84.46 98.148L89.696 103.413L102.461 91.969L105.208 95.034L89.533 109.086Z" fill="#3D238E"/>
<path d="M273.001 87.044H114.553V91.113H273.001V87.044Z" fill="#0981F2"/>
<path d="M273.001 95.661H114.553V99.73H273.001V95.661Z" fill="#0981F2"/>
<path d="M273.001 104.279H114.553V108.348H273.001V104.279Z" fill="#0981F2"/>
<path d="M192.12 112.896H114.553V116.965H192.12V112.896Z" fill="#0981F2"/>
<path d="M98.948 170.576H84.886C80.624 170.576 77.169 167.121 77.169 162.859V148.798C77.169 144.536 80.624 141.081 84.886 141.081H98.948C103.21 141.081 106.665 144.536 106.665 148.798V162.859C106.665 167.122 103.21 170.576 98.948 170.576Z" fill="#FF2E56"/>
<path d="M89.533 163.124L81.542 155.087L84.46 152.186L89.696 157.451L102.461 146.007L105.208 149.071L89.533 163.124Z" fill="#3D238E"/>
<path d="M273.001 141.082H114.553V145.151H273.001V141.082Z" fill="#0981F2"/>
<path d="M273.001 149.699H114.553V153.768H273.001V149.699Z" fill="#0981F2"/>
<path d="M273.001 158.316H114.553V162.385H273.001V158.316Z" fill="#0981F2"/>
<path d="M192.12 166.934H114.553V171.003H192.12V166.934Z" fill="#0981F2"/>
<path d="M98.948 224.614H84.886C80.624 224.614 77.169 221.159 77.169 216.897V202.836C77.169 198.574 80.624 195.119 84.886 195.119H98.948C103.21 195.119 106.665 198.574 106.665 202.836V216.897C106.665 221.159 103.21 224.614 98.948 224.614Z" fill="#FF2E56"/>
<path d="M89.533 217.162L81.542 209.125L84.46 206.223L89.696 211.489L102.461 200.044L105.208 203.109L89.533 217.162Z" fill="#3D238E"/>
<path d="M273.001 195.119H114.553V199.188H273.001V195.119Z" fill="#0981F2"/>
<path d="M273.001 203.737H114.553V207.806H273.001V203.737Z" fill="#0981F2"/>
<path d="M273.001 212.354H114.553V216.423H273.001V212.354Z" fill="#0981F2"/>
<path d="M192.12 220.971H114.553V225.04H192.12V220.971Z" fill="#0981F2"/>
<path d="M98.948 278.652H84.886C80.624 278.652 77.169 275.197 77.169 270.935V256.874C77.169 252.612 80.624 249.157 84.886 249.157H98.948C103.21 249.157 106.665 252.612 106.665 256.874V270.935C106.665 275.197 103.21 278.652 98.948 278.652Z" fill="#FF2E56"/>
<path d="M89.533 271.199L81.542 263.163L84.46 260.261L89.696 265.526L102.461 254.082L105.208 257.147L89.533 271.199Z" fill="#3D238E"/>
<path d="M273.001 249.157H114.553V253.226H273.001V249.157Z" fill="#0981F2"/>
<path d="M273.001 257.774H114.553V261.843H273.001V257.774Z" fill="#0981F2"/>
<path d="M273.001 266.392H114.553V270.461H273.001V266.392Z" fill="#0981F2"/>
<path d="M192.12 275.009H114.553V279.078H192.12V275.009Z" fill="#0981F2"/>
<path d="M98.948 332.689H84.886C80.624 332.689 77.169 329.234 77.169 324.972V310.911C77.169 306.649 80.624 303.194 84.886 303.194H98.948C103.21 303.194 106.665 306.649 106.665 310.911V324.972C106.665 329.234 103.21 332.689 98.948 332.689Z" fill="#FF2E56"/>
<path d="M89.533 325.237L81.542 317.2L84.46 314.298L89.696 319.564L102.461 308.12L105.208 311.184L89.533 325.237Z" fill="#3D238E"/>
<path d="M273.001 303.195H114.553V307.264H273.001V303.195Z" fill="#0981F2"/>
<path d="M273.001 311.812H114.553V315.881H273.001V311.812Z" fill="#0981F2"/>
<path d="M273.001 320.429H114.553V324.498H273.001V320.429Z" fill="#0981F2"/>
<path d="M192.12 329.047H114.553V333.116H192.12V329.047Z" fill="#0981F2"/>
<path d="M44.8736 140.217C48.8917 136.199 48.8917 129.684 44.8736 125.666C40.8556 121.648 34.341 121.648 30.3229 125.666C26.3049 129.684 26.3049 136.199 30.3229 140.217C34.341 144.235 40.8556 144.235 44.8736 140.217Z" fill="#0981F2"/>
<path d="M35.542 115.573C38.0991 115.573 40.172 113.5 40.172 110.943C40.172 108.386 38.0991 106.313 35.542 106.313C32.9849 106.313 30.912 108.386 30.912 110.943C30.912 113.5 32.9849 115.573 35.542 115.573Z" fill="#0981F2"/>
<path d="M373.274 64.521C379.098 64.521 383.82 59.7994 383.82 53.975C383.82 48.1506 379.098 43.429 373.274 43.429C367.45 43.429 362.728 48.1506 362.728 53.975C362.728 59.7994 367.45 64.521 373.274 64.521Z" fill="#6737C1"/>
<path d="M383.883 26.356C383.883 30.205 380.763 33.326 376.913 33.326C373.063 33.326 369.943 30.206 369.943 26.356C369.943 22.507 373.064 19.386 376.913 19.386C380.762 19.386 383.883 22.506 383.883 26.356Z" fill="#6737C1"/>
<path d="M420.346 43.429C422.335 43.429 423.947 41.8168 423.947 39.828C423.947 37.8392 422.335 36.227 420.346 36.227C418.357 36.227 416.745 37.8392 416.745 39.828C416.745 41.8168 418.357 43.429 420.346 43.429Z" fill="#6737C1"/>
<path d="M293.394 12.584L298.83 23.6L310.986 25.366L302.19 33.941L304.267 46.047L293.394 40.331L282.521 46.047L284.598 33.941L275.801 25.366L287.957 23.6L293.394 12.584Z" fill="#FFA901"/>
<path d="M156.274 181.491C160.311 181.339 164.025 182.837 166.773 185.386C169.512 187.935 171.283 191.527 171.435 195.555L177.341 352.946L163.184 373.679L148.116 354.042L142.21 196.651C141.908 188.587 148.201 181.793 156.274 181.491Z" fill="#FFC010"/>
<path d="M153.924 181.773C154.683 181.621 155.469 181.522 156.279 181.495C164.349 181.189 171.132 187.49 171.438 195.56L171.649 201.34L163.09 201.66L142.427 202.443L142.214 196.655C141.998 190.935 145.101 185.847 149.812 183.271C151.073 182.584 152.455 182.069 153.924 181.773Z" fill="#CF2E4D"/>
<path d="M149.811 183.27C156.95 183.991 162.65 189.89 162.928 197.27L163.089 201.66L142.426 202.443L142.213 196.655C141.998 190.935 145.1 185.847 149.811 183.27Z" fill="#FF2E56"/>
<path d="M147.473 202.855L166.651 202.135L172.24 351.097C170.376 350.646 168.453 350.352 166.491 350.206C165.207 350.117 163.917 350.092 162.602 350.142C161.287 350.191 160.002 350.313 158.728 350.498C156.782 350.79 154.887 351.227 153.062 351.817L147.473 202.855Z" fill="#FEA901"/>
<path d="M153.181 202.641L160.944 202.35L166.492 350.207C165.208 350.118 163.918 350.093 162.603 350.143C161.288 350.192 160.003 350.314 158.729 350.499L153.181 202.641Z" fill="#FFC010"/>
<path d="M162.601 350.146C164.749 350.062 166.867 350.171 168.93 350.47C171.856 350.884 174.679 351.666 177.333 352.754L177.338 352.948L167.004 368.087L163.189 373.683L159.06 368.3L157.841 366.711L148.115 354.042L148.11 353.848C152.481 351.653 157.385 350.336 162.601 350.146Z" fill="#F9C89D"/>
<path d="M162.601 350.146C164.749 350.062 166.867 350.171 168.93 350.47L158.294 366.052L157.841 366.712L148.115 354.043L148.11 353.849C152.481 351.653 157.385 350.336 162.601 350.146Z" fill="#FFE3BB"/>
<path d="M162.929 366.893C164.436 366.837 165.852 367.277 167.007 368.084L163.184 373.678L159.059 368.3C160.134 367.456 161.468 366.948 162.929 366.893Z" fill="#3D238E"/>
<path d="M419.986 335.154C419.986 337.569 418.028 339.527 415.613 339.527C413.198 339.527 411.24 337.569 411.24 335.154C411.24 332.739 413.198 330.781 415.613 330.781C418.028 330.781 419.986 332.739 419.986 335.154Z" fill="#7C7CFE"/>
<path d="M424.859 313.546C429.539 313.546 433.333 309.752 433.333 305.072C433.333 300.392 429.539 296.598 424.859 296.598C420.179 296.598 416.385 300.392 416.385 305.072C416.385 309.752 420.179 313.546 424.859 313.546Z" fill="#7C7CFE"/>
<path d="M399.408 329.366C401.397 329.366 403.009 327.754 403.009 325.765C403.009 323.776 401.397 322.164 399.408 322.164C397.419 322.164 395.807 323.776 395.807 325.765C395.807 327.754 397.419 329.366 399.408 329.366Z" fill="#7C7CFE"/>
<path d="M412.129 282.788C413.634 276.378 409.658 269.962 403.249 268.457C396.84 266.952 390.424 270.928 388.919 277.337C387.414 283.747 391.389 290.162 397.799 291.668C404.208 293.173 410.624 289.197 412.129 282.788Z" fill="#7C7CFE"/>
<path d="M361.082 355.887C361.082 355.887 375.101 362.961 374.972 366.819C374.866 370.008 350.253 369.946 341.711 369.829C340.111 369.807 338.832 368.504 338.832 366.904V354.73L361.082 355.887Z" fill="#241F3F"/>
<path d="M270.283 355.887C270.283 355.887 256.265 362.961 256.393 366.819C256.499 370.008 281.112 369.946 289.653 369.829C291.253 369.807 292.532 368.504 292.532 366.904V354.73L270.283 355.887Z" fill="#241F3F"/>
<path d="M315.682 259.509H259.479L269.253 350.1H291.117L299.066 295.196C300.261 286.939 307.338 280.813 315.681 280.813C324.024 280.813 331.101 286.939 332.296 295.196L340.245 350.1H362.109L371.883 259.509H315.682Z" fill="#241F3F"/>
<path d="M367.855 345.641C367.855 339.982 363.076 341.148 363.076 341.148L362.69 344.723H350.706H339.458L338.946 341.126C338.946 341.126 333.686 340.374 333.558 345.641C333.421 351.247 331.55 358.873 350.706 359.01C369.863 358.873 367.855 351.249 367.855 345.641Z" fill="#2E1C66"/>
<path d="M263.509 345.641C263.509 339.982 268.288 341.148 268.288 341.148L268.674 344.723H280.658H291.906L292.418 341.126C292.418 341.126 297.678 340.374 297.806 345.641C297.943 351.247 299.814 358.873 280.658 359.01C261.501 358.873 263.509 351.249 263.509 345.641Z" fill="#2E1C66"/>
<path d="M424.862 174.931L390.147 196.538C384.488 186.249 369.312 182.628 369.312 182.628L376 261.543C348.704 273.746 322.179 265.833 316.705 263.961C316.036 263.724 315.676 263.58 315.676 263.58C315.676 263.58 315.316 263.724 314.647 263.961C309.173 265.833 282.659 273.746 255.363 261.543L262.051 182.628L213.179 183.935V141.493L291.714 128.375L314.339 140.722L315.646 148.531L315.677 148.696L315.708 148.531L317.025 140.722L339.65 128.375L368.284 133.519C384.489 136.862 424.862 174.931 424.862 174.931Z" fill="#452B99"/>
<path d="M213.18 141.492V182.627L184.073 185.611L176.109 186.424L174.308 186.609L158.998 188.173L143.729 172.74C145.643 169.921 150.232 166.783 156.189 163.614C176.623 152.738 213.18 141.492 213.18 141.492Z" fill="#FFABAB"/>
<path d="M184.072 185.611L176.108 186.424L176.077 186.3L174.297 186.547L174.307 186.609L158.997 188.173L143.728 172.74C145.642 169.921 150.231 166.783 156.188 163.614C157.155 163.491 158.122 163.439 159.079 163.439C170.14 163.439 180.109 170.857 183.052 181.877L184.072 185.611Z" fill="#FF9092"/>
<path d="M315.682 156.669L330.129 165.758C330.129 165.758 347.106 157.87 352.422 139.864L345.11 129.728L315.682 156.669Z" fill="#2E1C66"/>
<path d="M315.682 156.669L301.235 165.758C301.235 165.758 284.258 157.87 278.942 139.864L286.254 129.728L315.682 156.669Z" fill="#2E1C66"/>
<path d="M387.576 204.169C387.576 204.169 385.347 191.822 393.749 183.42C400.735 176.435 418.268 167.197 431.965 169.01C436.693 169.636 440.592 173.105 441.803 177.718C444.069 186.352 445.488 201.895 429.761 209.54L387.576 204.169Z" fill="#2E1C66"/>
<path d="M381.742 238.289C381.742 238.289 382.411 244.843 372.307 247.436C369.91 248.053 367.512 246.417 367.276 243.948L366.113 231.499L365.506 225.068C365.321 223.124 366.36 221.251 368.14 220.438C369.745 219.697 371.957 219.45 374.54 221.148C374.54 221.148 395.519 179.396 419.286 175.527C425.902 174.447 432.219 177.533 435.594 182.709C437.25 185.219 438.207 188.214 438.187 191.454C438.084 204.738 426.056 223.607 381.742 238.289Z" fill="#FA8D93"/>
<path d="M381.742 238.289C381.742 238.289 382.411 244.843 372.307 247.436C369.91 248.053 367.512 246.417 367.276 243.948L366.113 231.499C366.607 230.583 367.379 229.822 368.366 229.369C370.115 228.566 372.512 228.289 375.321 230.141C375.321 230.141 398.111 184.798 423.915 180.579C428.113 179.9 432.187 180.754 435.593 182.709C437.249 185.219 438.206 188.214 438.186 191.454C438.084 204.738 426.056 223.607 381.742 238.289Z" fill="#FFABAB"/>
<path d="M299.606 199.732L289.317 203.483L278.942 199.732V182.626H299.606V199.732Z" fill="#2E1C66"/>
<path d="M176.365 187.059L174.915 181.738H174.911L174.91 181.734C172.309 171.966 162.692 165.787 152.719 167.474C148.238 168.237 144.316 170.483 141.436 173.675C138.782 176.619 137.019 180.359 136.536 184.475C136.482 184.83 136.45 185.184 136.428 185.539L136.17 189.633V189.708H136.181L136.557 192.244C136.686 193.104 137.137 193.845 137.793 194.382C138.449 194.919 139.308 195.242 140.222 195.242C142.457 195.242 144.133 193.383 143.768 191.309L143.306 188.741L144.23 188.623H144.231L144.621 191.291C144.871 193.003 146.446 194.29 148.289 194.289C150.523 194.288 152.202 192.425 151.832 190.359L151.35 187.666L152.601 187.495L152.609 187.494L153.036 190.413C153.286 192.125 154.861 193.412 156.704 193.411C158.938 193.41 160.617 191.547 160.247 189.481L159.718 186.528L159.725 186.527L160.886 186.377L160.893 186.376L161.318 189.285C161.568 190.997 163.142 192.284 164.986 192.283C167.22 192.282 168.899 190.419 168.529 188.353L168.004 185.42L169.412 185.229L170.23 188.631C170.604 190.187 172.081 191.22 173.671 191.037C175.598 190.815 176.874 188.93 176.365 187.059Z" fill="#FFABAB"/>
<path d="M209.689 139.674L215.652 138.378C218.29 137.805 220.749 139.892 220.608 142.588C220.129 151.743 219.505 170.73 221.563 184.42C221.937 186.911 220.041 189.159 217.523 189.159H212.77C210.649 189.159 208.767 187.775 208.162 185.742C206.257 179.335 202.957 164.283 205.94 143.693C206.228 141.705 207.726 140.101 209.689 139.674Z" fill="#2E1C66"/>
<path d="M316.706 149.527V263.96C316.037 263.723 315.677 263.579 315.677 263.579C315.677 263.579 315.317 263.723 314.648 263.96V149.527C314.648 148.869 315.142 148.539 315.646 148.529H315.708C316.212 148.54 316.706 148.869 316.706 149.527Z" fill="#2E1C66"/>
<path d="M342.953 108.431C341.374 110.01 337.45 111.374 335.871 109.795C334.292 108.216 335.656 104.292 337.235 102.713C338.814 101.134 341.374 101.134 342.953 102.713C344.532 104.292 344.532 106.853 342.953 108.431Z" fill="#FFABAB"/>
<path d="M288.412 108.431C289.991 110.01 293.915 111.374 295.494 109.795C297.073 108.216 295.709 104.292 294.13 102.713C292.551 101.134 289.991 101.134 288.412 102.713C286.833 104.292 286.833 106.853 288.412 108.431Z" fill="#FFABAB"/>
<path d="M342.047 126.89H289.317L299.349 90.821H332.016L342.047 126.89Z" fill="#FFABAB"/>
<path d="M345.11 129.728L336.126 96.012C335.674 94.316 334.138 93.136 332.383 93.136H327.257C327.257 93.136 326.871 99.052 333.559 100.853L337.675 121.045C337.675 121.045 327.386 116.666 315.683 116.666C303.979 116.666 293.691 121.045 293.691 121.045L297.807 100.853C304.495 99.053 304.109 93.136 304.109 93.136H298.983C297.228 93.136 295.692 94.316 295.24 96.012L286.256 129.728C285.811 131.399 285.991 133.188 286.796 134.719C296.538 153.242 315.683 156.669 315.683 156.669C315.683 156.669 334.828 153.242 344.57 134.719C345.374 133.189 345.555 131.4 345.11 129.728Z" fill="#241F3F"/>
<path d="M317.96 121.944H313.405C311.396 121.944 309.995 119.952 310.674 118.061L311.813 114.891C312.4 113.258 313.948 112.169 315.683 112.169C317.418 112.169 318.966 113.258 319.553 114.891L320.692 118.061C321.37 119.952 319.969 121.944 317.96 121.944Z" fill="#FA8D93"/>
<path d="M300.223 95.517C302.061 94.371 304.345 94.184 306.338 95.033C312.277 97.565 318.642 99.372 324.862 98.002C331.511 96.537 337.169 91.238 339.068 84.7C336.26 86.457 332.575 85.423 329.511 84.164C326.448 82.905 323.583 81.06 320.332 80.428C314.819 79.357 308.77 82.371 306.305 87.416C305.09 86.426 303.291 86.397 301.791 86.851C300.291 87.305 299.015 88.329 298.001 89.524C295.819 92.095 294.729 95.565 295.049 98.922C296.54 97.703 298.438 96.631 300.223 95.517Z" fill="#241F3F"/>
<path d="M369.731 180.082C365.998 178.165 363.463 174.839 362.598 170.733C362.325 169.435 360.341 169.986 360.614 171.28C361.58 175.864 364.526 179.719 368.693 181.859C369.87 182.464 370.911 180.689 369.731 180.082Z" fill="#2E1C66"/>
<path d="M271.477 169.185C269.505 173.634 266.426 177.317 262.343 179.977C261.236 180.698 262.266 182.481 263.382 181.754C267.747 178.911 271.14 174.992 273.254 170.224C273.787 169.022 272.014 167.974 271.477 169.185Z" fill="#2E1C66"/>
<path d="M366.434 216.422C363.921 216.265 362.51 217.883 361.762 220.116C361.157 221.923 361.581 224.256 361.643 226.101C361.73 228.662 361.816 231.223 361.903 233.784C361.948 235.107 364.006 235.112 363.961 233.784C363.874 231.2 361.91 218.197 366.434 218.479C367.76 218.563 367.752 216.505 366.434 216.422Z" fill="#2E1C66"/>
<path d="M267.173 140.672L227.678 146.842C226.37 147.046 226.927 149.029 228.225 148.826L267.72 142.656C269.029 142.452 268.471 140.469 267.173 140.672Z" fill="#2E1C66"/>
<path d="M328.093 108.348C328.093 109.52 327.143 110.47 325.971 110.47C324.799 110.47 323.849 109.52 323.849 108.348C323.849 107.176 324.799 106.226 325.971 106.226C327.143 106.226 328.093 107.176 328.093 108.348Z" fill="#241F3F"/>
<path d="M307.515 108.348C307.515 109.52 306.565 110.47 305.393 110.47C304.221 110.47 303.271 109.52 303.271 108.348C303.271 107.176 304.221 106.226 305.393 106.226C306.565 106.226 307.515 107.176 307.515 108.348Z" fill="#241F3F"/>
<path d="M329.032 104.929C327.008 102.905 323.726 102.905 321.701 104.929C321.186 104.414 320.67 103.898 320.155 103.383C323.033 100.505 327.7 100.505 330.578 103.383C330.063 103.899 329.547 104.414 329.032 104.929Z" fill="#241F3F"/>
<path d="M309.059 104.929C307.035 102.905 303.752 102.905 301.728 104.929C301.213 104.414 300.697 103.898 300.182 103.383C303.06 100.505 307.727 100.505 310.605 103.383C310.089 103.899 309.574 104.414 309.059 104.929Z" fill="#241F3F"/>
<path d="M309.466 131.883C311.88 135.192 316.414 136.321 320.141 134.349C323.868 132.377 325.485 127.993 324.106 124.136L309.466 131.883Z" fill="white"/>
</svg>
