<svg width="414" height="440" viewBox="0 0 414 440" fill="none" xmlns="http://www.w3.org/2000/svg">
<path d="M216.091 394.729L205.066 399.458L205.807 334.203C206.152 326.397 202.558 323.064 200.606 320.844C182.901 300.712 156.49 315.314 156.258 335.731L155.596 394.042L144.883 393.92L145.948 332.901C146.026 326.026 151.366 314.105 156.756 309.836C186.553 286.233 217.046 310.622 216.753 336.418L216.091 394.729Z" fill="#F5F5F5"/>
<path d="M216.091 394.729C216.091 394.729 216.083 394.328 216.086 393.563C216.09 392.79 216.097 391.659 216.105 390.178C216.128 387.202 216.163 382.831 216.207 377.205C216.256 371.581 216.317 364.704 216.387 356.721C216.425 352.732 216.466 348.467 216.508 343.945C216.466 339.432 216.916 334.614 215.992 329.679C215.137 324.748 213.058 319.79 209.856 315.37C209.448 314.823 209.057 314.258 208.631 313.717C208.173 313.202 207.712 312.685 207.249 312.165C206.369 311.08 205.256 310.205 204.24 309.217C203.723 308.731 203.123 308.338 202.565 307.891C201.984 307.474 201.454 306.978 200.824 306.621C199.59 305.871 198.392 305.032 197.044 304.435C194.453 303.031 191.565 302.166 188.628 301.42C187.879 301.297 187.126 301.174 186.371 301.05L185.236 300.864C184.854 300.825 184.469 300.813 184.084 300.786C183.314 300.739 182.542 300.691 181.766 300.644C180.99 300.631 180.211 300.694 179.429 300.716C173.167 300.934 166.833 303.075 161.348 306.739C158.604 308.587 156.151 310.896 153.944 313.455C151.786 316.066 150.023 319.026 148.615 322.181C147.26 325.368 146.427 328.787 145.994 332.285C145.695 335.792 145.775 339.398 145.706 343.011C145.543 357.481 145.375 372.464 145.203 387.809C145.18 389.858 145.156 391.9 145.133 393.926L144.885 393.672C148.529 393.714 152.119 393.754 155.598 393.794L155.345 394.041C155.479 382.443 155.61 371.097 155.737 360.071C155.801 354.558 155.865 349.126 155.927 343.782C155.958 341.11 155.989 338.46 156.02 335.834C156.087 333.184 156.512 330.569 157.313 328.09C158.995 323.163 162.137 318.85 166.174 315.896C166.688 315.542 167.161 315.128 167.706 314.827L169.306 313.88C170.421 313.352 171.51 312.765 172.681 312.403C173.819 311.948 175.011 311.695 176.184 311.406C176.775 311.283 177.377 311.227 177.97 311.135L178.861 311.01L179.757 310.974C182.143 310.78 184.507 311.102 186.781 311.562C189.051 312.094 191.2 312.947 193.202 314.012C197.14 316.243 200.443 319.386 202.605 323.078C203.764 324.881 204.514 326.866 205.179 328.821C205.706 330.819 206.122 332.825 206.166 334.828C206.185 335.327 206.203 335.825 206.222 336.319C206.216 336.811 206.21 337.3 206.204 337.788C206.192 338.763 206.18 339.728 206.168 340.685C206.144 342.598 206.12 344.475 206.097 346.315C206.003 353.674 205.916 360.438 205.838 366.538C205.67 378.729 205.539 388.266 205.452 394.608L205.379 394.534C209.019 394.594 211.687 394.639 213.457 394.668C214.336 394.685 214.989 394.699 215.434 394.707C215.869 394.717 216.091 394.729 216.091 394.729C216.091 394.729 215.887 394.736 215.458 394.736C215.017 394.735 214.369 394.733 213.498 394.731C211.719 394.72 209.037 394.704 205.377 394.681H205.303L205.304 394.607C205.361 388.264 205.446 378.727 205.555 366.535C205.616 360.435 205.683 353.67 205.756 346.311C205.775 344.471 205.794 342.594 205.813 340.68C205.823 339.723 205.833 338.758 205.843 337.783C205.848 337.296 205.853 336.806 205.858 336.314C205.839 335.826 205.819 335.336 205.799 334.844C205.753 332.871 205.337 330.896 204.815 328.929C204.155 327.006 203.415 325.052 202.269 323.28C200.134 319.649 196.877 316.562 193.001 314.373C191.031 313.329 188.916 312.493 186.684 311.973C184.448 311.525 182.124 311.21 179.779 311.405L178.898 311.441L178.023 311.566C177.44 311.658 176.849 311.713 176.269 311.835C175.117 312.121 173.946 312.369 172.829 312.819C171.679 313.175 170.611 313.754 169.516 314.273L167.945 315.205C167.409 315.501 166.946 315.909 166.442 316.257C162.48 319.162 159.4 323.402 157.754 328.237C156.97 330.671 156.557 333.234 156.492 335.839C156.463 338.465 156.434 341.115 156.405 343.787C156.346 349.131 156.286 354.564 156.225 360.076C156.102 371.102 155.975 382.448 155.845 394.046L155.842 394.296L155.592 394.293C152.113 394.254 148.523 394.213 144.879 394.172L144.628 394.169L144.631 393.918C144.654 391.893 144.677 389.85 144.701 387.801C144.877 372.456 145.049 357.474 145.215 343.003C145.287 339.383 145.205 335.809 145.511 332.232C145.951 328.686 146.799 325.22 148.174 321.991C149.603 318.793 151.393 315.795 153.581 313.152C155.819 310.561 158.306 308.225 161.088 306.355C166.647 302.648 173.068 300.488 179.407 300.274C180.199 300.253 180.988 300.191 181.773 300.205L184.462 300.373C184.955 300.429 185.448 300.485 185.941 300.541L188.188 300.912C188.533 300.985 188.879 301.058 189.225 301.131C192.022 301.86 194.759 302.721 197.23 304.063C198.592 304.67 199.804 305.52 201.051 306.281C201.687 306.644 202.223 307.146 202.81 307.568C203.374 308.021 203.979 308.42 204.502 308.912C205.529 309.912 206.651 310.801 207.539 311.898C208.006 312.425 208.471 312.949 208.933 313.47C209.363 314.017 209.758 314.589 210.169 315.143C213.398 319.617 215.487 324.632 216.34 329.615C217.263 334.612 216.796 339.454 216.825 343.978C216.765 348.516 216.709 352.795 216.656 356.798C216.545 364.791 216.449 371.678 216.371 377.309C216.288 382.919 216.223 387.278 216.179 390.245C216.154 391.712 216.135 392.833 216.122 393.598C216.107 394.352 216.091 394.729 216.091 394.729Z" fill="#E0E0E0"/>
<path d="M229.039 439.005L131.743 437.9L132.675 355.833L229.628 356.934C231.696 356.957 233.353 358.653 233.33 360.721L232.48 435.643C232.458 437.521 230.918 439.026 229.039 439.005Z" fill="#E0E0E0"/>
<path d="M215.6 438.852L131.35 437.896C129.031 437.87 127.172 435.968 127.198 433.649L128.036 359.845C128.062 357.601 129.901 355.802 132.146 355.828L217.439 356.796C219.683 356.821 221.482 358.661 221.456 360.906L220.627 433.939C220.596 436.683 218.345 438.884 215.6 438.852Z" fill="#EBEBEB"/>
<path d="M187.391 390.261C187.464 383.816 182.202 378.553 175.711 378.674C169.655 378.786 164.594 383.847 164.475 389.903C164.371 395.183 167.869 399.637 172.682 401.068L165.026 416.792L184.773 417.379L178.933 401.14C183.747 399.826 187.331 395.498 187.391 390.261Z" fill="#E0E0E0"/>
<path d="M220.717 431.202C220.578 431.2 220.689 416.908 220.965 399.284C221.24 381.654 221.576 367.368 221.715 367.37C221.853 367.372 221.743 381.661 221.467 399.291C221.191 416.915 220.856 431.204 220.717 431.202Z" fill="#FAFAFA"/>
<path d="M199.881 359.083C199.881 359.222 187.305 359.358 171.796 359.388C156.281 359.418 143.707 359.33 143.707 359.191C143.707 359.053 156.28 358.916 171.795 358.886C187.304 358.856 199.881 358.944 199.881 359.083Z" fill="white"/>
<path d="M164.033 396.166C164.006 396.181 163.827 395.933 163.566 395.446C163.304 394.961 162.982 394.223 162.709 393.27C162.152 391.384 161.91 388.519 162.894 385.613C163.882 382.708 165.819 380.582 167.409 379.425C168.207 378.836 168.91 378.446 169.414 378.221C169.917 377.994 170.21 377.906 170.222 377.934C170.265 378.019 169.129 378.484 167.627 379.705C166.133 380.904 164.317 382.987 163.369 385.775C162.425 388.564 162.597 391.321 163.053 393.182C163.5 395.065 164.118 396.125 164.033 396.166Z" fill="white"/>
<path d="M168.499 401.648C168.426 401.766 167.753 401.479 166.997 401.009C166.24 400.538 165.686 400.061 165.76 399.943C165.833 399.825 166.506 400.112 167.263 400.583C168.019 401.053 168.573 401.53 168.499 401.648Z" fill="white"/>
<path d="M178.055 303.281C178.057 303.325 177.365 303.376 176.125 303.533C174.885 303.686 173.1 304.004 170.963 304.639C166.712 305.87 160.988 308.722 156.469 313.84C151.955 318.966 149.842 325.003 149.154 329.374C148.792 331.574 148.7 333.385 148.704 334.634C148.704 335.883 148.74 336.577 148.696 336.58C148.679 336.581 148.652 336.41 148.617 336.081C148.591 335.752 148.518 335.266 148.508 334.638C148.445 333.382 148.483 331.552 148.803 329.319C149.409 324.885 151.499 318.724 156.092 313.508C160.691 308.299 166.541 305.454 170.864 304.298C173.039 303.7 174.85 303.433 176.104 303.339C176.729 303.269 177.22 303.282 177.55 303.266C177.88 303.259 178.054 303.264 178.055 303.281Z" fill="white"/>
<path d="M148.18 345.425C148.041 345.422 147.957 344.086 147.992 342.44C148.027 340.794 148.167 339.463 148.306 339.466C148.444 339.469 148.529 340.805 148.494 342.451C148.459 344.096 148.319 345.428 148.18 345.425Z" fill="white"/>
<path d="M209.811 66.8789H161.158V79.7499H209.811V66.8789Z" fill="#F5F5F5"/>
<path d="M189.238 93.3069C189.233 93.3019 189.228 93.2229 189.223 93.0729C189.219 92.9009 189.214 92.6839 189.207 92.4129C189.198 91.8069 189.186 90.9629 189.17 89.8799C189.15 87.6579 189.122 84.4639 189.087 80.4359L189.238 80.5869C178.129 80.6089 160.462 80.6449 140.588 80.6839C140.698 80.5739 140.338 80.9309 140.833 80.4359V80.4389V80.4459V80.4589V80.4849V80.5369V80.6409V80.8479V81.2619V82.0869C140.833 82.6359 140.833 83.1829 140.833 83.7289C140.833 84.8199 140.832 85.9029 140.832 86.9769C140.831 89.1249 140.829 91.2379 140.828 93.3079L140.586 93.0659C154.44 93.1099 166.563 93.1479 175.257 93.1759C179.588 93.2049 183.063 93.2289 185.491 93.2449C186.672 93.2589 187.596 93.2689 188.258 93.2769C188.556 93.2839 188.794 93.2889 188.982 93.2929C189.146 93.2969 189.233 93.3019 189.238 93.3069C189.243 93.3119 189.167 93.3169 189.013 93.3229C188.833 93.3269 188.605 93.3319 188.319 93.3389C187.67 93.3469 186.762 93.3569 185.604 93.3709C183.19 93.3869 179.733 93.4109 175.426 93.4399C166.689 93.4679 154.507 93.5059 140.586 93.5499L140.344 93.5509V93.3079C140.343 91.2379 140.341 89.1249 140.34 86.9769C140.34 85.9029 140.339 84.8199 140.339 83.7289C140.339 83.1839 140.339 82.6359 140.339 82.0869V81.2619V80.8479V80.6409V80.5369V80.4849V80.4589V80.4459V80.4389V80.4359C140.835 79.9399 140.478 80.2989 140.59 80.1879C160.464 80.2279 178.131 80.2629 189.24 80.2849H189.392L189.391 80.4359C189.355 84.5019 189.327 87.7259 189.308 89.9699C189.292 91.0379 189.28 91.8719 189.271 92.4689C189.265 92.7289 189.259 92.9369 189.255 93.1029C189.248 93.2429 189.243 93.3119 189.238 93.3069Z" fill="#E0E0E0"/>
<path d="M384.749 289.139H336.096V302.01H384.749V289.139Z" fill="#F5F5F5"/>
<path d="M364.176 315.567C364.171 315.562 364.166 315.483 364.161 315.333C364.157 315.161 364.152 314.944 364.145 314.673C364.136 314.067 364.124 313.223 364.109 312.14C364.089 309.918 364.061 306.724 364.026 302.696L364.177 302.847C353.068 302.869 335.401 302.904 315.527 302.944C315.637 302.834 315.277 303.191 315.772 302.697V302.7V302.707V302.72V302.746V302.798V302.902V303.109V303.523V304.348C315.772 304.897 315.772 305.444 315.772 305.99C315.772 307.081 315.771 308.164 315.771 309.238C315.77 311.386 315.768 313.499 315.767 315.569L315.525 315.327C329.379 315.371 341.502 315.41 350.196 315.437C354.527 315.466 358.002 315.49 360.43 315.506C361.611 315.52 362.535 315.53 363.197 315.538C363.495 315.545 363.733 315.55 363.921 315.554C364.084 315.556 364.171 315.561 364.176 315.567C364.181 315.572 364.105 315.577 363.951 315.583C363.771 315.587 363.543 315.592 363.257 315.599C362.608 315.607 361.701 315.617 360.542 315.631C358.128 315.647 354.671 315.671 350.364 315.7C341.627 315.728 329.445 315.766 315.524 315.81L315.282 315.811V315.568C315.281 313.498 315.279 311.385 315.278 309.237C315.278 308.163 315.277 307.08 315.277 305.989C315.277 305.444 315.277 304.896 315.277 304.347V303.522V303.108V302.901V302.797V302.745V302.719V302.706V302.699V302.696C315.773 302.2 315.416 302.558 315.528 302.448C335.402 302.488 353.069 302.523 364.178 302.545H364.33L364.329 302.696C364.293 306.762 364.265 309.986 364.246 312.23C364.23 313.298 364.218 314.132 364.209 314.729C364.203 314.989 364.197 315.197 364.193 315.363C364.186 315.503 364.181 315.572 364.176 315.567Z" fill="#E0E0E0"/>
<path d="M65.795 46.7198C65.79 46.7148 65.785 46.6358 65.78 46.4858C65.776 46.3138 65.771 46.0968 65.764 45.8258C65.755 45.2198 65.743 44.3758 65.727 43.2928C65.707 41.0708 65.679 37.8768 65.644 33.8488L65.795 33.9998C54.686 34.0218 37.019 34.0568 17.145 34.0968C17.255 33.9868 16.895 34.3438 17.39 33.8498V33.8528V33.8598V33.8728V33.8988V33.9508V34.0548V34.2618V34.6758V35.5008C17.39 36.0498 17.39 36.5968 17.39 37.1428C17.39 38.2338 17.389 39.3168 17.389 40.3908C17.388 42.5388 17.386 44.6518 17.385 46.7218L17.143 46.4798C30.997 46.5238 43.12 46.5618 51.814 46.5898C56.145 46.6188 59.62 46.6428 62.048 46.6588C63.229 46.6728 64.153 46.6828 64.815 46.6908C65.113 46.6978 65.351 46.7028 65.539 46.7068C65.703 46.7088 65.79 46.7138 65.795 46.7198C65.8 46.7248 65.724 46.7298 65.57 46.7358C65.39 46.7398 65.162 46.7448 64.876 46.7508C64.227 46.7588 63.32 46.7688 62.161 46.7828C59.747 46.7988 56.29 46.8228 51.983 46.8518C43.246 46.8798 31.064 46.9178 17.143 46.9618L16.901 46.9628V46.7198C16.9 44.6498 16.898 42.5368 16.897 40.3888C16.897 39.3148 16.896 38.2318 16.896 37.1408C16.896 36.5958 16.896 36.0478 16.896 35.4988V34.6738V34.2598V34.0528V33.9488V33.8978V33.8718V33.8588V33.8518V33.8488C17.392 33.3528 17.035 33.7108 17.147 33.6008C37.021 33.6408 54.688 33.6758 65.797 33.6978H65.949L65.948 33.8488C65.912 37.9148 65.884 41.1388 65.865 43.3828C65.849 44.4508 65.837 45.2848 65.828 45.8818C65.822 46.1418 65.816 46.3498 65.812 46.5158C65.805 46.6558 65.8 46.7248 65.795 46.7198Z" fill="#E0E0E0"/>
<path d="M355.899 28.2358C355.894 28.2308 355.889 28.1518 355.884 28.0018C355.88 27.8298 355.875 27.6128 355.868 27.3418C355.859 26.7358 355.847 25.8918 355.831 24.8088C355.811 22.5868 355.783 19.3928 355.748 15.3648L355.899 15.5158C344.79 15.5378 327.123 15.5728 307.249 15.6128C307.359 15.5028 306.999 15.8598 307.494 15.3648V15.3678V15.3748V15.3878V15.4138V15.4658V15.5698V15.7768V16.1908V17.0158C307.494 17.5648 307.494 18.1128 307.494 18.6578C307.494 19.7488 307.493 20.8318 307.493 21.9058C307.492 24.0538 307.49 26.1668 307.489 28.2368L307.247 27.9948C321.101 28.0388 333.224 28.0778 341.918 28.1048C346.249 28.1338 349.724 28.1578 352.152 28.1738C353.333 28.1878 354.257 28.1978 354.919 28.2058C355.217 28.2118 355.455 28.2178 355.643 28.2208C355.807 28.2248 355.894 28.2308 355.899 28.2358C355.904 28.2408 355.828 28.2468 355.674 28.2518C355.494 28.2558 355.266 28.2608 354.98 28.2678C354.331 28.2758 353.424 28.2858 352.265 28.2998C349.851 28.3158 346.394 28.3398 342.087 28.3688C333.35 28.3968 321.168 28.4348 307.247 28.4788L307.005 28.4798V28.2368C307.004 26.1668 307.002 24.0538 307.001 21.9058C307.001 20.8318 307 19.7488 307 18.6578C307 18.1128 307 17.5648 307 17.0158V16.1908V15.7768V15.5698V15.4658V15.4138V15.3878V15.3748V15.3678V15.3648C307.496 14.8688 307.139 15.2268 307.251 15.1168C327.125 15.1568 344.792 15.1918 355.901 15.2138H356.053L356.052 15.3648C356.016 19.4308 355.988 22.6558 355.969 24.8988C355.953 25.9668 355.941 26.8008 355.932 27.3978C355.925 27.6578 355.92 27.8658 355.916 28.0318C355.909 28.1718 355.904 28.2408 355.899 28.2358Z" fill="#E0E0E0"/>
<path d="M362.496 15.3649C362.49 15.3589 362.484 15.2759 362.477 15.1199C362.472 14.9349 362.465 14.7109 362.458 14.4379C362.447 13.8049 362.432 12.9439 362.414 11.8569C362.391 9.59986 362.358 6.41286 362.318 2.49386L362.496 2.67185C354.923 2.68985 344.621 2.71485 333.266 2.74185C333.043 2.96285 333.565 2.43986 333.512 2.49486V2.49785V2.50485V2.51785V2.54386V2.59685V2.70286V2.91385V3.33586V4.17686C333.512 4.73586 333.512 5.29285 333.511 5.84585C333.51 6.95185 333.51 8.04485 333.509 9.12185C333.506 11.2749 333.503 13.3629 333.5 15.3629L333.264 15.1269C341.703 15.1719 348.968 15.2109 354.175 15.2389C356.743 15.2669 358.801 15.2879 360.266 15.3039C360.95 15.3159 361.495 15.3259 361.909 15.3339C362.286 15.3449 362.486 15.3549 362.496 15.3649C362.506 15.3749 362.324 15.3839 361.965 15.3939C361.564 15.4009 361.035 15.4109 360.371 15.4239C358.919 15.4399 356.879 15.4619 354.333 15.4889C349.086 15.5169 341.766 15.5559 333.263 15.6009L333.027 15.6019V15.3649C333.024 13.3649 333.021 11.2769 333.018 9.12385C333.017 8.04685 333.017 6.95386 333.016 5.84786C333.016 5.29486 333.016 4.73785 333.015 4.17885V3.33785V2.91585V2.70486V2.59786V2.54486V2.51785V2.50485V2.49785V2.49486C332.961 2.54686 333.485 2.02386 333.265 2.24586C344.62 2.27286 354.922 2.29786 362.495 2.31586H362.675L362.673 2.49386C362.633 6.45886 362.6 9.68286 362.577 11.9659C362.558 13.0359 362.543 13.8829 362.533 14.5069C362.52 15.0819 362.508 15.3769 362.496 15.3649Z" fill="#E0E0E0"/>
<path d="M48.899 335.133C48.894 335.128 48.889 335.049 48.884 334.899C48.88 334.727 48.875 334.51 48.868 334.239C48.859 333.633 48.847 332.789 48.831 331.706C48.811 329.484 48.783 326.29 48.748 322.262L48.899 322.413C37.79 322.435 20.123 322.47 0.249001 322.51C0.359001 322.4 -0.00100052 322.757 0.493999 322.262V322.265V322.272V322.285V322.311V322.363V322.466V322.673V323.087V323.912C0.493999 324.461 0.493999 325.009 0.493999 325.554C0.493999 326.645 0.493 327.728 0.493 328.802C0.492 330.95 0.489998 333.063 0.488998 335.133L0.246998 334.891C14.101 334.935 26.224 334.974 34.918 335.001C39.249 335.03 42.724 335.054 45.152 335.07C46.333 335.084 47.258 335.094 47.919 335.102C48.217 335.108 48.455 335.114 48.643 335.118C48.808 335.122 48.894 335.127 48.899 335.133C48.904 335.138 48.828 335.143 48.674 335.149C48.494 335.153 48.266 335.158 47.98 335.165C47.331 335.173 46.424 335.183 45.265 335.197C42.851 335.213 39.394 335.237 35.087 335.266C26.35 335.294 14.168 335.332 0.246998 335.376L0.00499725 335.377V335.134C0.00399725 333.064 0.00199945 330.951 0.000999451 328.803C0.000999451 327.729 0 326.646 0 325.555C0 325.01 0 324.462 0 323.913V323.088V322.674V322.467V322.364V322.312V322.286V322.273V322.266V322.263C0.496 321.767 0.138999 322.125 0.250999 322.015C20.125 322.055 37.792 322.09 48.901 322.112H49.053L49.052 322.263C49.016 326.329 48.988 329.554 48.969 331.797C48.953 332.865 48.941 333.699 48.932 334.296C48.925 334.556 48.92 334.764 48.916 334.93C48.909 335.069 48.904 335.138 48.899 335.133Z" fill="#E0E0E0"/>
<path d="M55.496 322.262C55.49 322.256 55.484 322.173 55.477 322.017C55.472 321.832 55.465 321.608 55.458 321.335C55.447 320.702 55.432 319.841 55.414 318.754C55.391 316.497 55.358 313.31 55.318 309.391L55.496 309.569C47.923 309.587 37.621 309.612 26.266 309.639C26.043 309.86 26.565 309.337 26.512 309.392V309.395V309.402V309.415V309.441V309.494V309.6V309.811V310.233V311.074C26.512 311.634 26.512 312.19 26.511 312.743C26.51 313.849 26.509 314.942 26.509 316.019C26.506 318.172 26.503 320.26 26.5 322.26L26.264 322.024C34.703 322.069 41.968 322.108 47.175 322.136C49.743 322.163 51.801 322.185 53.266 322.201C53.95 322.213 54.495 322.223 54.909 322.231C55.285 322.242 55.486 322.252 55.496 322.262C55.506 322.272 55.324 322.281 54.965 322.291C54.564 322.298 54.035 322.308 53.371 322.321C51.919 322.337 49.879 322.359 47.334 322.386C42.087 322.414 34.767 322.453 26.264 322.498L26.028 322.499V322.262C26.025 320.262 26.022 318.174 26.019 316.021C26.018 314.944 26.018 313.851 26.017 312.745C26.017 312.192 26.017 311.635 26.016 311.076V310.235V309.813V309.602V309.496V309.443V309.417V309.404V309.397V309.394C25.962 309.446 26.486 308.923 26.266 309.145C37.621 309.172 47.923 309.197 55.496 309.215H55.676L55.674 309.393C55.634 313.358 55.601 316.582 55.578 318.865C55.559 319.935 55.544 320.782 55.534 321.406C55.52 321.979 55.508 322.274 55.496 322.262Z" fill="#E0E0E0"/>
<path d="M202.096 229.301C202.091 229.296 202.086 229.217 202.081 229.067C202.077 228.895 202.072 228.678 202.065 228.407C202.056 227.801 202.044 226.957 202.028 225.874C202.008 223.652 201.98 220.458 201.945 216.43L202.096 216.581C190.987 216.603 173.32 216.638 153.446 216.678C153.556 216.568 153.196 216.925 153.691 216.43V216.433V216.44V216.453V216.479V216.531V216.635V216.842V217.256V218.081C153.691 218.63 153.691 219.178 153.691 219.723C153.691 220.814 153.69 221.897 153.69 222.971C153.689 225.119 153.687 227.232 153.686 229.302L153.444 229.06C167.298 229.104 179.421 229.143 188.115 229.17C192.446 229.199 195.921 229.223 198.349 229.239C199.53 229.253 200.454 229.263 201.116 229.271C201.414 229.277 201.652 229.283 201.84 229.287C202.004 229.29 202.09 229.295 202.096 229.301C202.101 229.306 202.025 229.311 201.871 229.317C201.691 229.321 201.463 229.326 201.177 229.333C200.528 229.341 199.62 229.351 198.462 229.365C196.048 229.381 192.591 229.405 188.284 229.434C179.547 229.462 167.365 229.5 153.444 229.544L153.202 229.545V229.302C153.201 227.232 153.199 225.119 153.198 222.971C153.198 221.897 153.197 220.814 153.197 219.723C153.197 219.178 153.197 218.63 153.197 218.081V217.256V216.842V216.635V216.531V216.479V216.453V216.44V216.433V216.43C153.693 215.934 153.336 216.293 153.448 216.182C173.322 216.222 190.989 216.257 202.098 216.279H202.25L202.249 216.43C202.213 220.496 202.185 223.721 202.166 225.964C202.15 227.032 202.138 227.866 202.129 228.463C202.122 228.723 202.117 228.931 202.113 229.097C202.106 229.237 202.101 229.306 202.096 229.301Z" fill="#E0E0E0"/>
<path d="M208.692 216.43C208.686 216.424 208.68 216.341 208.673 216.185C208.668 216 208.661 215.776 208.654 215.503C208.643 214.87 208.628 214.009 208.61 212.922C208.587 210.665 208.554 207.478 208.514 203.559L208.692 203.737C201.119 203.755 190.817 203.78 179.462 203.807C179.239 204.028 179.761 203.505 179.708 203.56V203.563V203.57V203.583V203.609V203.662V203.768V203.98V204.402V205.243C179.708 205.803 179.708 206.359 179.707 206.912C179.706 208.018 179.706 209.111 179.705 210.188C179.702 212.341 179.699 214.429 179.696 216.429L179.46 216.193C187.899 216.238 195.164 216.277 200.371 216.305C202.939 216.332 204.997 216.354 206.462 216.37C207.146 216.382 207.691 216.392 208.105 216.4C208.482 216.41 208.682 216.42 208.692 216.43C208.702 216.44 208.52 216.449 208.161 216.459C207.76 216.466 207.231 216.476 206.567 216.489C205.115 216.505 203.075 216.527 200.529 216.554C195.282 216.582 187.962 216.621 179.459 216.666L179.223 216.667V216.43C179.22 214.43 179.217 212.342 179.214 210.189C179.213 209.112 179.212 208.019 179.212 206.913C179.212 206.36 179.212 205.803 179.211 205.244V204.403V203.981V203.769V203.663V203.61V203.584V203.571V203.564V203.561C179.157 203.613 179.681 203.09 179.461 203.312C190.816 203.339 201.118 203.364 208.691 203.382L208.871 203.383L208.869 203.561C208.829 207.526 208.796 210.75 208.773 213.033C208.754 214.103 208.739 214.95 208.729 215.574C208.717 216.146 208.705 216.442 208.692 216.43Z" fill="#E0E0E0"/>
<path d="M21.959 383.706L3.98401 408.119L34.243 430.638C36.217 427.615 24.881 410.162 24.881 410.162L37.039 394.993L21.959 383.706Z" fill="#455A64"/>
<path d="M16.501 401.888C15.796 401.612 14.902 401.97 14.597 402.662C14.293 403.355 14.648 404.268 15.348 404.556C16.048 404.844 17.135 404.448 17.36 403.725C17.585 403.002 17.109 401.953 16.36 401.842" fill="white"/>
<path d="M3.944 408.168L5.857 405.545L34.128 428.309C34.128 428.309 35.029 429.904 34.165 430.733L3.944 408.168Z" fill="#263238"/>
<path d="M25.487 410.373C25.372 410.517 24.584 410.034 23.503 409.968C22.424 409.874 21.573 410.235 21.481 410.075C21.366 409.945 22.244 409.226 23.551 409.328C24.857 409.42 25.62 410.261 25.487 410.373Z" fill="#263238"/>
<path d="M27.684 414.047C27.611 414.216 26.784 413.991 25.817 414.242C24.843 414.465 24.213 415.047 24.071 414.931C23.915 414.851 24.457 413.909 25.665 413.62C26.87 413.319 27.785 413.904 27.684 414.047Z" fill="#263238"/>
<path d="M26.659 419.187C26.501 419.119 26.845 418.227 27.827 417.7C28.805 417.166 29.74 417.365 29.71 417.535C29.703 417.719 28.931 417.819 28.132 418.264C27.323 418.69 26.817 419.282 26.659 419.187Z" fill="#263238"/>
<path d="M27.874 406.608C27.712 406.697 27.186 405.988 26.308 405.423C25.442 404.84 24.583 404.637 24.601 404.453C24.595 404.282 25.636 404.208 26.661 404.887C27.69 405.56 28.033 406.546 27.874 406.608Z" fill="#263238"/>
<path d="M95.113 281.564C95.661 284.625 96.512 310.656 97.063 324.383C97.614 338.111 96.243 344.872 94.675 347.945C93.106 351.018 33.893 394.66 29.386 405.109L14.429 393.02C14.429 393.02 36.386 353.522 45.811 346.351C55.236 339.18 73.232 332.578 73.232 332.578L68.11 257.383L92.697 256.043L95.113 281.564Z" fill="#263238"/>
<path d="M40.087 407.836L39.825 438.151L77.54 438.67C77.369 435.064 57.957 427.562 57.957 427.562L58.922 408.145L40.087 407.836Z" fill="#455A64"/>
<path d="M46.317 425.768C45.584 425.957 45.069 426.771 45.228 427.511C45.387 428.251 46.21 428.782 46.946 428.606C47.681 428.429 48.331 427.472 48.089 426.754C47.848 426.037 46.847 425.466 46.176 425.814" fill="white"/>
<path d="M39.82 438.215L39.833 434.969L76.081 436.852C76.081 436.852 77.745 437.617 77.531 438.795L39.82 438.215Z" fill="#263238"/>
<path d="M58.57 427.38C58.561 427.564 57.639 427.635 56.725 428.215C55.795 428.771 55.318 429.562 55.149 429.487C54.98 429.449 55.27 428.352 56.389 427.669C57.502 426.976 58.612 427.211 58.57 427.38Z" fill="#263238"/>
<path d="M62.503 429.07C62.543 429.249 61.741 429.551 61.105 430.322C60.446 431.074 60.277 431.914 60.094 431.903C59.921 431.93 59.808 430.849 60.617 429.906C61.417 428.957 62.502 428.894 62.503 429.07Z" fill="#263238"/>
<path d="M64.685 433.836C64.517 433.873 64.273 432.949 64.76 431.947C65.24 430.941 66.114 430.555 66.19 430.71C66.292 430.863 65.725 431.396 65.338 432.225C64.932 433.044 64.868 433.82 64.685 433.836Z" fill="#263238"/>
<path d="M58.299 422.93C58.219 423.097 57.378 422.831 56.336 422.887C55.293 422.922 54.478 423.26 54.384 423.101C54.279 422.966 55.079 422.296 56.308 422.246C57.535 422.189 58.391 422.787 58.299 422.93Z" fill="#263238"/>
<path d="M97.837 252.935C97.837 254.71 100.705 299.513 86.06 331.909C86.06 331.909 80.986 342.045 80.098 346.482C79.21 350.92 60.219 424.386 60.219 424.386L38.321 423.587C38.321 423.587 34.815 386.774 38.365 365.472C41.915 344.17 48.398 346.656 48.398 332.898C48.398 319.14 45.13 290.608 45.13 290.608C45.13 290.608 40.346 282.813 38.716 267.708C37.391 255.434 43.164 242.289 43.164 242.289L48.879 232.176L97.187 229.644L97.837 252.935Z" fill="#263238"/>
<path d="M97.837 252.935C97.837 252.935 97.843 252.419 97.825 251.411C97.803 250.392 97.772 248.894 97.73 246.931C97.632 242.978 97.489 237.158 97.304 229.643L97.301 229.524L97.182 229.53C85.312 230.133 68.82 230.971 48.87 231.985L48.765 231.99L48.713 232.082C46.936 235.219 44.991 238.652 42.987 242.189L42.981 242.2L42.977 242.208C41.539 245.691 40.376 249.395 39.534 253.29C38.675 257.177 38.198 261.276 38.328 265.477C38.595 269.672 39.278 273.908 40.294 278.17C41.355 282.415 42.708 286.704 44.924 290.735L44.89 290.636C45.719 298.1 46.484 305.83 47.135 313.788C47.456 317.767 47.741 321.804 47.938 325.895C48.038 327.94 48.111 329.999 48.127 332.068C48.163 333.106 48.086 334.133 48.067 335.17C47.96 336.197 47.909 337.238 47.683 338.251C47.322 340.295 46.586 342.257 45.61 344.123C44.64 345.993 43.552 347.843 42.64 349.797C40.78 353.696 39.577 357.912 38.706 362.199C36.962 370.801 36.61 379.741 36.513 388.743C36.475 400.639 37.076 412.313 38.056 423.611L38.076 423.842L38.31 423.851C45.772 424.122 53.082 424.387 60.208 424.645L60.417 424.653L60.469 424.451C66.813 399.84 72.735 376.84 77.952 356.158C78.594 353.569 79.227 351.018 79.85 348.504C80.171 347.237 80.384 345.974 80.774 344.778C81.156 343.572 81.602 342.392 82.064 341.229C83.002 338.909 84.014 336.66 85.047 334.468C85.309 333.922 85.569 333.378 85.829 332.837C86.101 332.304 86.357 331.756 86.569 331.197C87.021 330.091 87.47 328.995 87.914 327.91C91.367 319.183 93.4 310.71 94.83 302.976C97.632 287.468 98.003 274.849 98.132 266.241C98.187 257.616 97.837 252.935 97.837 252.935C97.837 252.935 97.832 253.228 97.844 253.803C97.859 254.388 97.881 255.24 97.91 256.357C97.972 258.605 98.005 261.933 97.953 266.241C97.768 274.841 97.345 287.447 94.503 302.918C93.055 310.631 91.004 319.082 87.547 327.763C87.103 328.842 86.655 329.931 86.203 331.03C85.991 331.587 85.739 332.122 85.464 332.66C85.203 333.202 84.941 333.747 84.677 334.294C83.638 336.489 82.619 338.742 81.672 341.072C81.206 342.24 80.754 343.427 80.365 344.651C79.963 345.881 79.745 347.161 79.427 348.403C78.8 350.914 78.164 353.463 77.518 356.049C72.207 376.707 66.295 399.708 59.967 424.322L60.228 424.128C53.102 423.866 45.793 423.598 38.331 423.323L38.585 423.563C37.611 412.288 37.012 400.619 37.05 388.748C37.147 379.763 37.498 370.85 39.229 362.307C40.094 358.044 41.284 353.873 43.119 350.023C44.02 348.091 45.097 346.259 46.079 344.363C47.068 342.472 47.83 340.44 48.198 338.348C48.428 337.308 48.48 336.25 48.588 335.203C48.607 334.154 48.683 333.102 48.647 332.065C48.63 329.985 48.555 327.92 48.454 325.871C48.253 321.772 47.965 317.73 47.641 313.748C46.983 305.783 46.21 298.053 45.372 290.582L45.367 290.535L45.338 290.482C43.173 286.554 41.803 282.264 40.75 278.058C39.735 273.834 39.049 269.595 38.779 265.458C38.645 261.308 39.109 257.242 39.957 253.381C40.784 249.515 41.94 245.816 43.354 242.373L43.345 242.391C45.341 238.85 47.279 235.412 49.049 232.272L48.892 232.369C68.839 231.292 85.327 230.402 97.196 229.761L97.074 229.648C97.308 237.161 97.489 242.979 97.612 246.932C97.68 248.895 97.731 250.392 97.767 251.411C97.802 252.419 97.837 252.935 97.837 252.935Z" fill="#455A64"/>
<path d="M82.126 161.177C82.126 161.177 69.08 158.875 70.34 175.608C71.095 185.627 74.036 202.765 75.666 213.723C76.229 217.509 77.465 224.292 82.474 228.272L118.374 253.118L129.704 239.572L97.648 209.035L92.61 178.836L82.126 161.177Z" fill="#455A64"/>
<path d="M83.653 100.882C87.796 104.146 90.161 109.541 89.753 114.8C89.555 117.354 88.851 120.27 90.512 122.22C92.157 124.15 95.387 124.095 96.964 126.081C98.82 128.42 97.266 131.9 97.93 134.811C98.554 137.543 101.436 139.557 104.216 139.203C100.957 141.865 96.951 143.603 92.78 144.165C91.714 142.796 90.647 141.426 89.58 140.057C90.793 141.495 90.471 143.787 89.296 145.257C88.121 146.726 86.308 147.527 84.515 148.096C75.948 150.813 66.129 149.217 58.864 143.927" fill="#263238"/>
<path d="M35.629 123.452C36.269 121.494 37.343 119.679 37.773 117.664C38.698 113.334 36.589 108.46 38.689 104.562C40.184 101.787 43.37 100.429 46.382 99.5009C49.394 98.5739 52.627 97.7869 54.873 95.5759C56.52 93.9549 57.458 91.7219 59.099 90.0949C61.439 87.7759 64.893 86.9909 68.181 86.7889C71.557 86.5819 75.048 86.9059 78.085 88.3959C81.121 89.8859 83.643 92.6839 84.184 96.0229C84.448 97.6509 84.248 99.3569 84.761 100.925C85.325 102.648 86.679 103.989 87.514 105.6C89.278 109.002 88.322 113.584 85.345 115.998L62.165 145.939C57.296 147.778 45.497 145.554 41.734 141.958C37.971 138.361 34.013 128.4 35.629 123.452Z" fill="#263238"/>
<path d="M84.733 112.194C83.778 105.396 78.608 97.3629 71.857 98.6059L51.017 105.611C48.966 105.989 50.434 109.333 50.635 111.409L55.166 158.407C55.132 158.417 52.351 160.417 51.346 160.031C51.085 159.931 50.851 160.224 51.009 160.454C53.512 164.088 65.326 179.975 77.502 175.125C80.222 174.041 77.218 165.471 77.536 162.295L77.174 154.183C76.904 150.042 76.774 148.345 76.779 148.384C76.779 148.384 85.394 146.264 86.327 134.739C86.793 129.009 85.795 119.747 84.733 112.194Z" fill="#FFBF9D"/>
<path d="M83.282 122.657C83.369 123.426 82.789 124.133 81.987 124.238C81.187 124.343 80.467 123.807 80.381 123.037C80.295 122.268 80.874 121.56 81.674 121.455C82.476 121.35 83.196 121.888 83.282 122.657Z" fill="#263238"/>
<path d="M69.091 123.546C69.178 124.315 68.598 125.023 67.796 125.127C66.996 125.232 66.276 124.695 66.19 123.926C66.104 123.157 66.683 122.449 67.483 122.344C68.284 122.239 69.004 122.777 69.091 123.546Z" fill="#263238"/>
<path d="M83.806 117.842C83.647 118.11 82.288 117.25 80.588 117.498C78.885 117.717 77.795 118.912 77.573 118.696C77.465 118.602 77.597 118.141 78.069 117.603C78.532 117.069 79.375 116.494 80.436 116.347C81.497 116.203 82.459 116.529 83.044 116.92C83.64 117.312 83.885 117.721 83.806 117.842Z" fill="#263238"/>
<path d="M68.531 119.103C68.33 119.349 66.993 118.379 65.164 118.457C63.335 118.507 62.037 119.569 61.828 119.337C61.726 119.234 61.918 118.797 62.485 118.318C63.04 117.84 64.001 117.36 65.142 117.319C66.283 117.28 67.262 117.692 67.835 118.131C68.417 118.57 68.629 118.992 68.531 119.103Z" fill="#263238"/>
<path d="M74.265 129.874C74.251 129.785 75.215 129.541 76.782 129.217C77.18 129.145 77.554 129.036 77.6 128.757C77.672 128.46 77.471 128.041 77.241 127.588C76.789 126.646 76.316 125.659 75.82 124.624C73.838 120.401 72.37 116.915 72.541 116.837C72.712 116.758 74.457 120.118 76.439 124.342C76.918 125.384 77.376 126.378 77.812 127.328C77.999 127.772 78.3 128.269 78.141 128.887C78.056 129.195 77.778 129.435 77.526 129.524C77.275 129.622 77.049 129.644 76.852 129.671C75.266 129.88 74.279 129.963 74.265 129.874Z" fill="#263238"/>
<path d="M76.78 148.385C76.78 148.385 69.158 149.468 61.219 145.489C61.219 145.489 65.666 153.185 76.98 151.244L76.78 148.385Z" fill="#FF9A6C"/>
<path d="M69.472 134.46C69.685 134.095 69.913 133.714 70.278 133.501C70.68 133.267 71.18 133.278 71.638 133.364C72.304 133.489 72.961 133.77 73.418 134.27C73.875 134.77 74.098 135.514 73.867 136.151C73.691 136.808 72.71 137.168 72.04 137.286C71.37 137.404 70.675 137.208 70.082 136.874C69.584 136.594 69.106 136.147 69.08 135.577C69.062 135.177 69.27 134.806 69.472 134.46Z" fill="#FF9A6C"/>
<path d="M69.794 132.248C70.048 132.214 70.183 133.919 71.736 135.017C73.286 136.12 75.09 135.788 75.122 136.026C75.154 136.131 74.742 136.389 73.977 136.468C73.226 136.552 72.108 136.394 71.158 135.723C70.21 135.049 69.751 134.088 69.639 133.393C69.519 132.684 69.677 132.247 69.794 132.248Z" fill="#263238"/>
<path d="M68.393 112.953C68.271 113.392 66.687 113.31 64.86 113.674C63.026 114.001 61.581 114.655 61.307 114.291C61.184 114.116 61.412 113.694 61.981 113.234C62.545 112.776 63.466 112.31 64.563 112.101C65.66 111.895 66.687 111.993 67.379 112.214C68.077 112.436 68.444 112.745 68.393 112.953Z" fill="#263238"/>
<path d="M82.837 112.092C82.549 112.473 81.283 112.198 79.794 112.295C78.302 112.346 77.065 112.746 76.746 112.395C76.605 112.224 76.776 111.851 77.3 111.471C77.817 111.093 78.702 110.748 79.727 110.696C80.751 110.646 81.662 110.901 82.207 111.227C82.762 111.553 82.963 111.907 82.837 112.092Z" fill="#263238"/>
<path d="M46.408 107.249C47.459 105.631 49.349 104.798 51.149 104.104C58.913 101.106 67.034 99.0379 75.286 97.9569C76.314 99.6509 75.364 101.956 73.813 103.189C72.263 104.422 70.27 104.909 68.414 105.603C66.558 106.297 64.656 107.366 63.891 109.194C63.078 111.138 63.764 113.441 63.05 115.423C61.821 118.834 57.061 119.934 55.852 123.351C54.937 125.936 56.434 128.688 56.809 131.404C57.233 134.482 56.093 137.736 53.841 139.876C52.065 141.564 49.633 142.511 47.187 142.558C46.622 132.771 46.057 122.983 45.493 113.196C45.375 111.158 45.297 108.962 46.408 107.249Z" fill="#263238"/>
<path d="M26.691 131.974C28.237 130.589 30.175 129.39 30.791 127.408C31.688 124.521 29.37 121.128 30.863 118.499C32.225 116.101 36.237 116.222 37.503 113.773C38.492 111.86 37.356 110.167 37.732 108.486C38.108 106.806 40.493 105.332 42.202 105.533L55.568 124.905C56.81 131.403 58.058 134.863 56.663 138.664C55.898 140.749 54.9 142.782 54.6 144.983C54.3 147.184 54.863 149.678 56.662 150.979C48.671 151.605 41.181 147.423 34.26 143.379C31.818 141.952 29.377 140.526 26.935 139.099C26.173 138.653 25.379 138.178 24.922 137.422C23.849 135.646 25.145 133.359 26.691 131.974Z" fill="#263238"/>
<path d="M34.06 141.421C34.06 141.421 34.344 141.527 34.914 141.585C35.48 141.642 36.34 141.668 37.403 141.409C38.456 141.153 39.734 140.614 40.875 139.54C42.017 138.482 42.937 136.831 43.161 134.869C43.27 133.891 43.204 132.841 42.899 131.804C42.591 130.762 42.013 129.795 41.415 128.834C40.825 127.871 40.181 126.883 39.884 125.752C39.59 124.641 39.588 123.32 40.312 122.363C41.039 121.389 42.39 121.151 43.642 120.646C44.273 120.394 44.924 120.003 45.346 119.384C45.768 118.767 45.91 118.007 45.896 117.288C45.879 115.825 45.255 114.487 44.987 113.125C44.85 112.443 44.801 111.737 44.974 111.084C45.143 110.431 45.555 109.858 46.127 109.463C47.281 108.639 48.753 108.508 50.17 108.383C51.595 108.281 53.085 107.959 54.289 107.171C55.506 106.419 56.482 105.342 57.108 104.115C57.728 102.874 57.952 101.542 58.149 100.285C58.342 99.0239 58.515 97.7979 58.932 96.6919C59.35 95.5909 60.023 94.6359 60.812 93.8589C62.424 92.3249 64.459 91.5089 66.341 91.3549C68.235 91.1949 69.954 91.6969 71.291 92.3859C72.64 93.0759 73.648 93.9449 74.369 94.7299C75.81 96.3269 76.212 97.4949 76.272 97.4569C76.279 97.4539 76.253 97.3839 76.196 97.2499C76.134 97.1179 76.059 96.9119 75.919 96.6639C75.66 96.1569 75.216 95.4329 74.504 94.6099C73.792 93.7929 72.782 92.8849 71.411 92.1549C70.052 91.4269 68.288 90.8819 66.315 91.0269C64.36 91.1659 62.241 91.9899 60.544 93.5799C59.714 94.3859 58.997 95.3859 58.549 96.5459C58.104 97.7059 57.923 98.9629 57.724 100.217C57.524 101.469 57.296 102.754 56.711 103.913C56.12 105.062 55.196 106.077 54.048 106.782C52.904 107.521 51.548 107.815 50.125 107.92C48.723 108.046 47.147 108.165 45.856 109.082C45.215 109.521 44.716 110.205 44.524 110.963C44.325 111.721 44.389 112.496 44.532 113.213C44.825 114.655 45.427 115.95 45.439 117.295C45.453 117.956 45.324 118.611 44.973 119.128C44.621 119.645 44.07 119.991 43.47 120.233C42.873 120.485 42.231 120.658 41.612 120.92C40.997 121.173 40.38 121.544 39.969 122.101C39.133 123.232 39.172 124.676 39.487 125.854C39.818 127.071 40.492 128.077 41.086 129.035C41.691 129.99 42.254 130.922 42.554 131.905C42.853 132.888 42.926 133.891 42.832 134.83C42.638 136.715 41.776 138.313 40.693 139.349C39.609 140.403 38.378 140.953 37.356 141.23C35.269 141.763 34.054 141.337 34.06 141.421Z" fill="#455A64"/>
<path d="M23.4 127.649C23.4 127.649 23.24 127.845 23.136 128.302C23.031 128.751 23.044 129.493 23.479 130.284C23.703 130.669 24.03 131.069 24.502 131.359C24.971 131.647 25.567 131.824 26.209 131.814C27.481 131.828 28.98 131.061 29.709 129.591C30.078 128.873 30.278 128.032 30.279 127.155C30.278 126.273 30.051 125.378 29.717 124.514C29.083 122.785 27.932 121.1 27.907 119.078C27.885 118.099 28.115 117.035 28.834 116.331C29.546 115.609 30.646 115.433 31.739 115.424C32.834 115.387 34.028 115.527 35.199 115.065C35.774 114.832 36.293 114.407 36.622 113.867C36.957 113.33 37.132 112.717 37.206 112.104C37.353 110.858 37.062 109.679 36.917 108.551C36.742 107.423 36.811 106.312 37.102 105.258C37.689 103.156 39.097 101.39 40.822 100.377C42.554 99.332 44.558 99.22 46.364 99.111C48.182 99.015 49.938 98.901 51.423 98.313C52.908 97.759 54.101 96.922 55.004 96.06C55.918 95.202 56.537 94.305 56.966 93.541C57.813 91.993 57.917 91.005 57.917 91.005C57.861 90.984 57.69 91.958 56.809 93.45C56.363 94.186 55.736 95.05 54.827 95.869C53.929 96.693 52.754 97.486 51.31 98.003C49.872 98.55 48.169 98.645 46.344 98.724C44.539 98.818 42.46 98.907 40.606 100.005C38.778 101.067 37.292 102.913 36.664 105.134C36.352 106.238 36.279 107.45 36.459 108.611C36.61 109.767 36.883 110.916 36.745 112.048C36.631 113.174 36.048 114.247 35.023 114.637C34.014 115.045 32.853 114.934 31.73 114.968C30.621 114.98 29.362 115.161 28.521 116.016C27.68 116.854 27.451 118.043 27.478 119.089C27.499 120.155 27.815 121.17 28.21 122.066C28.597 122.972 29.029 123.813 29.358 124.653C29.69 125.49 29.911 126.336 29.921 127.158C29.93 127.98 29.752 128.77 29.417 129.442C28.759 130.814 27.393 131.538 26.205 131.554C25.61 131.576 25.055 131.423 24.617 131.169C24.177 130.914 23.86 130.548 23.636 130.192C23.202 129.459 23.157 128.755 23.229 128.318C23.298 127.873 23.424 127.659 23.4 127.649Z" fill="#263238"/>
<path d="M107.626 132.423C107.552 132.418 108.059 133.189 107.6 134.513C107.37 135.135 106.849 135.894 105.939 136.198C105.054 136.501 103.821 136.267 103.006 135.397C102.598 134.97 102.361 134.374 102.319 133.723C102.276 133.073 102.405 132.384 102.625 131.7C103.05 130.347 103.915 128.875 103.783 127.111C103.687 125.4 102.819 123.65 101.352 122.492C100.626 121.91 99.776 121.464 98.861 121.18C97.944 120.885 96.965 120.819 96.015 120.771C95.061 120.722 94.123 120.696 93.252 120.482C92.386 120.274 91.6 119.831 91.101 119.145C90.601 118.462 90.381 117.612 90.323 116.78C90.263 115.941 90.365 115.117 90.53 114.315C90.857 112.718 91.336 111.166 91.247 109.639C91.167 108.121 90.59 106.773 89.819 105.756C89.046 104.719 88.046 104.085 87.215 103.556C86.372 103.028 85.654 102.572 85.133 102.117C84.065 101.215 83.881 100.398 83.823 100.434C83.816 100.437 83.827 100.484 83.857 100.574C83.892 100.662 83.925 100.803 84.017 100.966C84.174 101.303 84.488 101.772 85.012 102.252C85.528 102.74 86.247 103.227 87.073 103.774C87.894 104.325 88.839 104.956 89.555 105.953C90.273 106.934 90.803 108.226 90.861 109.657C90.931 111.095 90.458 112.601 90.11 114.229C89.936 115.044 89.82 115.918 89.88 116.81C89.938 117.696 90.166 118.632 90.733 119.415C91.298 120.202 92.206 120.709 93.14 120.931C94.08 121.162 95.042 121.185 95.992 121.235C96.942 121.283 97.866 121.346 98.725 121.622C99.586 121.887 100.386 122.305 101.067 122.847C102.44 123.923 103.253 125.547 103.355 127.137C103.496 128.75 102.695 130.162 102.257 131.584C102.036 132.3 101.904 133.034 101.961 133.75C102.013 134.462 102.297 135.149 102.767 135.622C103.699 136.579 105.047 136.801 106.025 136.444C107.029 136.078 107.554 135.239 107.773 134.573C108 133.885 107.938 133.305 107.85 132.946C107.748 132.583 107.626 132.423 107.626 132.423Z" fill="#263238"/>
<path d="M98.064 210.752V199.685C99.302 193.481 98.715 186.121 95.83 180.447C94.148 177.139 90.294 171.868 88.889 169.894L77.873 155.609C71.815 160.02 62.329 156.832 54.19 153.868C54.19 153.868 46.149 158.316 42.408 162.501C38.48 166.897 51.913 221.948 51.913 221.948C45.825 234.127 37.968 244.919 36.776 256.043L100.376 258.494L97.672 229.333L98.064 210.752Z" fill="#455A64"/>
<path d="M97.188 229.645C97.152 229.643 97.137 229.2 97.139 228.399C97.149 227.492 97.162 226.357 97.177 225.01C97.226 222.037 97.29 218.14 97.36 213.831C97.443 209.463 97.557 205.509 97.696 202.649C97.763 201.219 97.835 200.062 97.9 199.263C97.965 198.464 98.018 198.024 98.054 198.026C98.09 198.028 98.105 198.471 98.103 199.272C98.093 200.179 98.08 201.313 98.065 202.661C98.016 205.634 97.952 209.532 97.882 213.842C97.799 218.208 97.685 222.162 97.546 225.023C97.479 226.453 97.407 227.61 97.342 228.409C97.277 229.208 97.224 229.647 97.188 229.645Z" fill="#263238"/>
<path d="M126.238 239.708C126.238 239.708 132.432 240.044 136.276 242.449C140.12 244.855 146.282 248.585 148.828 253.222C149.997 255.35 146.665 255.801 145.02 254.564C143.375 253.327 140.857 251.001 139.607 250.715C138.357 250.429 138.357 250.429 138.357 250.429C138.357 250.429 140.868 256.02 142.164 257.984C143.46 259.948 144.58 263.306 140.702 263.459C140.702 263.459 138.086 266.859 135.446 264.34C135.446 264.34 133.385 267.425 130.065 263.147C130.065 263.147 128.132 265.593 127.325 264.661C126.518 263.729 123.876 262.238 123.104 259.182C122.332 256.126 119.089 248.692 119.089 248.692L126.238 239.708Z" fill="#FFBF9D"/>
<path d="M265.046 153.772C265.74 153.781 294.131 150.791 294.131 150.791C294.131 150.791 296.534 139.246 296.407 136.246C296.28 133.246 294.255 113.396 294.255 113.396L304.889 108.366C304.889 108.366 319.1 156.287 315.993 160.272C312.886 164.257 307.064 167.816 306.564 167.837C306.064 167.858 279.058 179.825 260.262 173.606C241.466 167.387 265.046 153.772 265.046 153.772Z" fill="#FFBF9D"/>
<path d="M240.168 179.64C244.351 183.786 251.551 187.235 263.562 184.236C287.327 178.302 305.133 173.281 312.218 169.435C319.303 165.59 316.538 148.655 317.134 147.886C318.93 145.569 316.96 140.584 314.404 139.81C307.138 137.609 294.482 138.476 293.849 139.14C290.115 143.055 293.521 147.82 293.521 147.82L262.188 151.924C262.188 151.924 256.738 151.553 250.677 152.661" fill="#455A64"/>
<path d="M250.677 152.661C250.677 152.661 250.93 152.595 251.429 152.499C251.927 152.403 252.671 152.279 253.648 152.155C255.601 151.916 258.492 151.642 262.196 151.797L262.171 151.798C269.653 150.795 280.46 149.347 293.492 147.6L293.341 147.948C292.376 146.465 291.757 144.681 291.899 142.802C291.965 141.867 292.295 140.947 292.796 140.14C293.023 139.716 293.36 139.373 293.66 139C293.76 138.915 293.944 138.823 294.068 138.78L294.426 138.691C294.666 138.628 294.897 138.607 295.133 138.563C298.888 138.082 302.797 138.064 306.817 138.317C308.825 138.458 310.863 138.699 312.895 139.155C313.402 139.271 313.905 139.418 314.413 139.548C314.943 139.719 315.448 140.007 315.847 140.383C316.664 141.126 317.219 142.091 317.613 143.104C317.993 144.124 318.176 145.241 318.027 146.362C317.918 146.915 317.753 147.48 317.398 147.954C317.305 148.052 317.317 148.326 317.304 148.586L317.313 149.383C317.388 151.532 317.487 153.722 317.431 155.929C317.337 159.07 317.062 162.235 315.941 165.152C315.38 166.592 314.561 167.99 313.336 168.978C312.735 169.498 312.024 169.822 311.361 170.155C310.695 170.509 309.999 170.781 309.325 171.095C306.592 172.268 303.838 173.222 301.132 174.12C298.425 175.016 295.756 175.83 293.145 176.595C282.693 179.638 273.187 182.023 265.205 184.013C263.217 184.527 261.285 184.943 259.445 185.21C257.598 185.427 255.842 185.578 254.199 185.489C250.911 185.395 248.124 184.64 246.014 183.712C243.899 182.767 242.441 181.688 241.514 180.911C240.582 180.132 240.171 179.64 240.171 179.64C240.196 179.613 240.632 180.081 241.581 180.83C242.525 181.577 243.99 182.62 246.095 183.527C248.196 184.416 250.956 185.134 254.209 185.199C255.834 185.274 257.572 185.11 259.4 184.883C261.226 184.604 263.125 184.184 265.117 183.657C273.086 181.622 282.58 179.201 293.011 176.136C295.617 175.366 298.28 174.548 300.977 173.649C303.673 172.749 306.418 171.794 309.125 170.628C309.791 170.317 310.482 170.045 311.135 169.697C311.802 169.361 312.471 169.055 313.012 168.58C314.14 167.67 314.921 166.353 315.46 164.963C316.542 162.151 316.821 159.026 316.912 155.917C316.968 153.729 316.87 151.562 316.795 149.398L316.786 148.578C316.787 148.44 316.794 148.299 316.807 148.152C316.822 148.067 316.819 148.011 316.851 147.903C316.872 147.843 316.899 147.784 316.929 147.73L316.978 147.65C317.275 147.258 317.418 146.77 317.516 146.282C317.649 145.283 317.487 144.238 317.13 143.283C316.764 142.335 316.237 141.428 315.504 140.763C315.14 140.422 314.721 140.188 314.266 140.037C313.769 139.909 313.279 139.765 312.781 139.651C310.788 139.201 308.771 138.959 306.78 138.816C302.802 138.558 298.888 138.571 295.204 139.033C294.98 139.074 294.743 139.096 294.532 139.153L294.211 139.231C294.122 139.272 294.084 139.275 294.003 139.324C293.723 139.674 293.404 139.994 293.195 140.386C292.729 141.133 292.421 141.976 292.358 142.842C292.214 144.572 292.806 146.306 293.702 147.691L293.899 147.995L293.551 148.039C280.509 149.708 269.694 151.091 262.206 152.049L262.194 152.05L262.18 152.049C258.508 151.859 255.615 152.09 253.664 152.287C252.687 152.389 251.941 152.492 251.44 152.565C250.938 152.64 250.677 152.661 250.677 152.661Z" fill="#263238"/>
<path d="M410.76 32.6309L411.855 34.5969C415.071 40.3749 412.994 47.6659 407.217 50.8819L165.851 185.233L153.11 162.344L394.476 27.9929C400.254 24.7769 407.544 26.8529 410.76 32.6309Z" fill="#5E78FF"/>
<path d="M356.156 1.14987L385.713 54.2489L368.24 63.9749L338.683 10.8749C338.082 9.79587 338.47 8.43387 339.549 7.83287L353.113 0.282873C354.194 -0.318127 355.555 0.0698737 356.156 1.14987Z" fill="#5E78FF"/>
<path d="M327.571 29.5289L349.106 68.2179C349.977 69.7829 349.415 71.7579 347.849 72.6299L336.045 79.2009C334.48 80.0719 332.504 79.5099 331.633 77.9439L310.098 39.2549C309.227 37.6899 309.789 35.7149 311.355 34.8429L323.159 28.2719C324.725 27.4009 326.7 27.9639 327.571 29.5289Z" fill="#5E78FF"/>
<path d="M329.106 36.972L342.442 60.929L369.579 45.8228L356.244 21.8659L329.106 36.972Z" fill="#5E78FF"/>
<path d="M390.928 29.9659C390.998 30.0919 343.631 56.5909 285.143 89.1469C226.636 121.714 179.165 148.004 179.095 147.878C179.025 147.752 226.382 121.259 284.89 88.6919C343.377 56.1359 390.858 29.8399 390.928 29.9659Z" fill="#263238"/>
<path d="M68.101 229.518C85.893 261.482 123.426 274.531 151.932 258.664C180.438 242.797 189.124 204.021 171.332 172.057C153.54 140.093 116.007 127.044 87.501 142.911C58.994 158.778 50.309 197.553 68.101 229.518ZM155.885 180.655C168.352 203.053 162.266 230.224 142.291 241.343C122.316 252.462 96.016 243.318 83.548 220.92C71.081 198.522 77.167 171.351 97.142 160.232C117.117 149.113 143.417 158.257 155.885 180.655Z" fill="#5E78FF"/>
<path d="M206.172 132.469L219.344 156.134C221.095 159.279 219.964 163.248 216.819 164.998L215.749 165.594C212.604 167.345 208.635 166.214 206.885 163.069L193.712 139.404C191.961 136.259 193.092 132.29 196.237 130.54L197.307 129.944C200.452 128.193 204.421 129.324 206.172 132.469Z" fill="black"/>
<path d="M231.468 118.388L244.641 142.053C246.392 145.198 245.261 149.167 242.116 150.917L241.046 151.513C237.901 153.264 233.932 152.133 232.182 148.988L219.009 125.323C217.258 122.178 218.389 118.209 221.534 116.459L222.604 115.863C225.749 114.113 229.717 115.243 231.468 118.388Z" fill="black"/>
<path d="M205.897 132.06C206.023 131.991 209.081 137.358 212.726 144.045C216.372 150.735 219.225 156.212 219.099 156.281C218.973 156.35 215.915 150.984 212.269 144.295C208.624 137.607 205.77 132.129 205.897 132.06Z" fill="#263238"/>
<path d="M194.289 140.362C194.415 140.292 197.399 145.414 200.954 151.8C204.51 158.189 207.29 163.423 207.165 163.493C207.039 163.563 204.056 158.442 200.499 152.053C196.945 145.667 194.164 140.432 194.289 140.362Z" fill="#263238"/>
<path d="M231.349 118.174C231.475 118.104 234.584 123.45 238.292 130.112C242.002 136.777 244.907 142.235 244.781 142.305C244.655 142.375 241.547 137.03 237.837 130.366C234.128 123.703 231.223 118.244 231.349 118.174Z" fill="#263238"/>
<path d="M219.134 125.549C219.26 125.48 222.303 130.791 225.931 137.409C229.559 144.03 232.398 149.451 232.271 149.521C232.145 149.59 229.102 144.281 225.474 137.66C221.847 131.041 219.008 125.618 219.134 125.549Z" fill="#263238"/>
<path d="M291.668 89.4799C293.968 89.7469 296.332 88.0619 296.829 85.7999C297.326 83.5379 295.887 81.0169 293.687 80.2949C295.121 78.8309 295.484 76.4269 294.546 74.6039C293.609 72.7819 291.441 71.6799 289.416 71.9959C289.336 69.9739 288.131 68.0339 286.356 67.0639C284.58 66.0949 282.296 66.1309 280.553 67.1569C278.323 65.2369 274.72 65.1569 272.407 66.9779C270.443 66.6109 268.298 67.6529 267.372 69.4239C266.446 71.1949 266.815 73.5499 268.237 74.9539" fill="#263238"/>
<path d="M271.381 71.6399L272.419 71.6429C282.87 71.6739 291.544 79.7239 292.353 90.1439C293.105 99.8349 293.811 110.551 293.732 115.749C293.567 126.511 282.797 128.152 282.797 128.152L283.668 141.085L257.551 140.197L255.383 93.2959C254.452 82.1179 260.182 72.2599 271.381 71.6399Z" fill="#FFBF9D"/>
<path d="M282.886 128.137C282.886 128.137 276.012 128.53 268.797 123.967C268.797 123.967 272.259 132.114 283.001 131.178L282.886 128.137Z" fill="#FF9A6C"/>
<path d="M286.446 100.253C286.472 101.065 285.807 101.756 284.959 101.799C284.113 101.842 283.405 101.22 283.379 100.409C283.353 99.597 284.018 98.905 284.864 98.862C285.711 98.819 286.419 99.442 286.446 100.253Z" fill="#263238"/>
<path d="M290.023 95.4029C289.832 95.6029 288.671 94.7379 287.016 94.7369C285.364 94.7129 284.147 95.5599 283.969 95.3569C283.881 95.2669 284.076 94.9059 284.606 94.5229C285.127 94.1409 286.016 93.7709 287.046 93.7789C288.076 93.7879 288.941 94.1699 289.439 94.5589C289.947 94.9499 290.118 95.3129 290.023 95.4029Z" fill="#263238"/>
<path d="M271.524 99.5409C271.55 100.352 270.885 101.044 270.037 101.087C269.191 101.13 268.483 100.509 268.457 99.6959C268.431 98.8849 269.097 98.1919 269.942 98.1489C270.79 98.1059 271.498 98.7289 271.524 99.5409Z" fill="#263238"/>
<path d="M273.766 95.6619C273.575 95.8619 272.412 94.9969 270.759 94.9959C269.108 94.9719 267.891 95.8189 267.712 95.6149C267.624 95.5249 267.817 95.1639 268.349 94.7809C268.87 94.3989 269.758 94.0289 270.789 94.0369C271.819 94.0459 272.685 94.4279 273.182 94.8169C273.687 95.2089 273.859 95.5729 273.766 95.6619Z" fill="#263238"/>
<path d="M279.731 107.945C279.723 107.851 280.752 107.676 282.419 107.468C282.841 107.426 283.241 107.343 283.313 107.055C283.413 106.75 283.238 106.295 283.035 105.802C282.641 104.779 282.229 103.707 281.796 102.582C280.075 97.9979 278.832 94.2299 279.017 94.1619C279.203 94.0949 280.747 97.7549 282.467 102.339C282.881 103.469 283.277 104.547 283.654 105.577C283.812 106.058 284.086 106.603 283.868 107.235C283.753 107.55 283.443 107.779 283.172 107.85C282.901 107.932 282.663 107.936 282.455 107.947C280.777 108.035 279.737 108.039 279.731 107.945Z" fill="#263238"/>
<path d="M275.22 89.3029C275.001 89.7219 273.585 89.2629 271.84 89.2009C270.097 89.0999 268.625 89.4239 268.467 88.9879C268.399 88.7799 268.71 88.4049 269.34 88.0709C269.965 87.7369 270.914 87.4809 271.96 87.5289C273.006 87.5789 273.912 87.9219 274.485 88.3119C275.062 88.7009 275.317 89.1029 275.22 89.3029Z" fill="#263238"/>
<path d="M290.124 88.583C289.774 88.958 288.411 88.563 286.769 88.54C285.129 88.469 283.737 88.783 283.418 88.389C283.278 88.198 283.498 87.822 284.106 87.468C284.706 87.116 285.707 86.829 286.835 86.861C287.963 86.894 288.939 87.238 289.509 87.624C290.089 88.013 290.279 88.401 290.124 88.583Z" fill="#263238"/>
<path d="M291.333 85.2059C291.333 85.2059 288.515 78.4569 285.27 76.8749C281.341 74.9589 279.634 79.2719 275.888 78.2129C272.141 77.1539 268.391 75.3159 264.551 78.2019C260.347 81.3619 262.305 83.5939 262.032 88.3679C260.923 107.725 257.371 113.189 256.393 104.067C256.286 103.068 253.516 102.265 253.118 98.0429C252.602 92.5679 252.411 85.9209 253.645 82.0409C254.685 78.7699 256.558 76.5139 259.913 74.0299C265.209 70.1089 272.467 70.0469 277.395 70.5579C282.321 71.0669 291.808 76.7679 291.333 85.2059Z" fill="#263238"/>
<path d="M257.079 103.775C257.016 102.114 255.589 100.798 253.933 100.95C251.925 101.135 249.688 102.268 249.808 106.416C250.021 113.775 257.365 112.043 257.371 111.832C257.376 111.689 257.196 106.854 257.079 103.775Z" fill="#FFBF9D"/>
<path d="M255.691 109.11C255.658 109.087 255.565 109.204 255.351 109.309C255.143 109.412 254.781 109.489 254.393 109.356C253.607 109.094 252.917 107.878 252.843 106.553C252.805 105.884 252.927 105.242 253.149 104.707C253.358 104.162 253.695 103.776 254.085 103.695C254.472 103.593 254.756 103.82 254.852 104.024C254.957 104.227 254.914 104.375 254.954 104.387C254.975 104.405 255.108 104.259 255.04 103.957C255.005 103.812 254.914 103.641 254.737 103.504C254.556 103.366 254.294 103.3 254.023 103.337C253.457 103.392 252.961 103.929 252.717 104.516C252.442 105.107 252.289 105.828 252.332 106.58C252.422 108.062 253.221 109.427 254.294 109.704C254.816 109.824 255.243 109.656 255.461 109.476C255.683 109.288 255.717 109.122 255.691 109.11Z" fill="#FF9A6C"/>
<path d="M257.266 89.5199C258.22 90.1749 259.227 90.8509 260.378 90.9679C261.529 91.0859 262.848 90.4279 263.045 89.2879C263.134 88.7759 263.01 88.1809 263.348 87.7869C263.751 87.3159 264.492 87.4659 265.108 87.5329C267.246 87.7659 269.753 85.4109 270.304 83.3319C270.847 84.1499 272.041 84.4009 272.869 83.8709C273.696 83.3409 273.998 83.0379 274.647 82.2999C275.295 81.5619 276.204 80.9029 277.176 81.0439C277.72 81.1229 278.228 81.4479 278.775 81.4009C279.742 81.3179 280.217 80.1879 280.366 79.2289C280.515 78.2709 280.632 77.1519 281.452 76.6329C282.212 76.1519 283.194 76.4339 284.083 76.5679C284.972 76.7019 286.121 76.4959 286.351 75.6269C286.472 75.1709 286.278 74.6899 286.026 74.2909C284.886 72.4839 282.39 71.6749 280.406 72.4699C279.694 70.0369 277.426 68.1369 274.905 67.8639C272.384 67.5899 269.761 68.9579 268.543 71.1819C266.992 69.7659 264.734 69.1669 262.686 69.6279C260.637 70.0889 258.854 71.5969 258.058 73.5399C256.269 73.0639 254.227 73.7499 253.089 75.2089C251.951 76.6679 251.783 78.8159 252.68 80.4349C251.355 81.1869 250.219 82.4969 250.187 84.0199C250.155 85.5429 251.634 87.0649 253.105 86.6689C252.508 87.8529 252.986 89.4639 254.133 90.1299C255.28 90.7959 256.916 90.4129 257.648 89.3069" fill="#263238"/>
<path d="M280.948 74.6399C280.954 74.6399 280.953 74.6859 280.946 74.7749C280.936 74.8629 280.93 74.9969 280.898 75.1679C280.829 75.5079 280.691 76.0099 280.359 76.5839C280.025 77.1489 279.508 77.8019 278.722 78.3189C277.952 78.8419 276.896 79.2379 275.706 79.1689L275.831 79.0059C276.058 79.6359 275.993 80.3909 275.677 81.0369C275.378 81.6939 274.909 82.2759 274.412 82.8429C274.158 83.1149 273.937 83.4349 273.586 83.6849C273.245 83.9249 272.837 84.0629 272.419 84.1139C271.589 84.2179 270.653 83.9579 270.053 83.2579L270.328 83.1799C270.136 84.6419 269.3 86.1029 267.976 86.9909C267.275 87.4939 266.409 87.8009 265.557 87.7749C264.705 87.7639 263.915 87.5119 263.178 87.2449L263.375 87.1589C262.977 88.0719 262.367 88.8509 261.627 89.4249C260.901 89.9979 259.934 90.3319 259.062 90.1149C257.327 89.7419 256.179 88.2939 255.951 86.9339L256.117 87.0119C255.254 87.4789 254.329 87.5209 253.588 87.3759C252.836 87.2359 252.247 86.9079 251.827 86.5839C251.406 86.2539 251.157 85.9159 251.008 85.6819C250.871 85.4389 250.814 85.3049 250.823 85.3009C250.86 85.2709 251.065 85.8609 251.902 86.4849C252.32 86.7829 252.896 87.0829 253.62 87.1999C254.334 87.3239 255.21 87.2629 256.007 86.8159L256.145 86.7379L256.174 86.8939C256.403 88.1629 257.509 89.5149 259.118 89.8419C259.909 90.0299 260.759 89.7309 261.447 89.1889C262.138 88.6479 262.72 87.8979 263.09 87.0389L263.149 86.9029L263.288 86.9529C264.013 87.2129 264.777 87.4499 265.564 87.4579C266.352 87.4769 267.129 87.2049 267.797 86.7279C269.048 85.8879 269.833 84.5209 270.021 83.1359L270.068 82.7879L270.297 83.0579C270.803 83.6569 271.64 83.9049 272.386 83.8129C272.761 83.7689 273.123 83.6479 273.421 83.4409C273.711 83.2429 273.942 82.9269 274.2 82.6519C274.696 82.0949 275.152 81.5349 275.437 80.9239C275.737 80.3199 275.796 79.6559 275.602 79.0859L275.543 78.9099L275.728 78.9229C276.85 79.0019 277.866 78.6429 278.618 78.1529C279.386 77.6699 279.902 77.0509 280.244 76.5119C280.915 75.4019 280.896 74.6229 280.948 74.6399Z" fill="#455A64"/>
<path d="M279.702 113.441C279.651 113.168 277.856 113.611 276.2 112.392C274.541 111.176 274.267 109.213 274.013 109.261C273.894 109.264 273.77 109.774 273.949 110.587C274.119 111.386 274.661 112.479 275.673 113.226C276.687 113.969 277.83 114.113 278.581 113.991C279.348 113.872 279.743 113.561 279.702 113.441Z" fill="#263238"/>
<path d="M335.163 393.224L342.268 417.418C342.268 417.418 369.246 418.322 370.994 422.665L324.577 438.125L311.961 400.882L335.163 393.224Z" fill="#455A64"/>
<path d="M327.245 420.187C326.428 420.732 326.144 421.948 326.655 422.787C327.165 423.625 328.4 423.925 329.227 423.394C330.053 422.864 330.439 421.414 329.837 420.638C329.236 419.862 327.767 419.59 327.092 420.303" fill="#E0E0E0"/>
<path d="M368.377 420.921C368.377 420.921 370.743 421.132 370.994 422.665L324.577 438.125L323.452 434.321L368.377 420.921Z" fill="#263238"/>
<path d="M342.941 416.931C343.009 417.16 341.91 417.64 341.037 418.74C340.136 419.818 339.888 420.991 339.649 420.97C339.425 420.996 339.312 419.528 340.392 418.215C341.461 416.892 342.921 416.707 342.941 416.931Z" fill="white"/>
<path d="M348.48 417.323C348.605 417.525 347.752 418.238 347.301 419.453C346.815 420.655 346.966 421.756 346.737 421.821C346.536 421.928 345.937 420.653 346.526 419.153C347.102 417.647 348.403 417.108 348.48 417.323Z" fill="white"/>
<path d="M353.186 422.229C352.996 422.346 352.304 421.319 352.472 419.884C352.63 418.447 353.536 417.602 353.695 417.759C353.885 417.903 353.419 418.798 353.299 419.978C353.15 421.154 353.404 422.131 353.186 422.229Z" fill="white"/>
<path d="M340.71 411.596C340.684 411.834 339.54 411.868 338.288 412.382C337.025 412.87 336.172 413.632 335.989 413.477C335.803 413.357 336.497 412.193 337.981 411.609C339.459 411.014 340.762 411.382 340.71 411.596Z" fill="white"/>
<path d="M226.827 393.436L216.72 416.538C216.72 416.538 236.807 434.57 235.355 439.021L189.859 421.033L204.13 384.392L226.827 393.436Z" fill="#455A64"/>
<path d="M203.432 409.004C202.456 408.897 201.457 409.646 201.309 410.617C201.162 411.587 201.915 412.611 202.889 412.735C203.862 412.86 205.09 411.997 205.128 411.016C205.166 410.035 204.215 408.882 203.24 408.995" fill="#E0E0E0"/>
<path d="M234.472 436.002C234.472 436.002 236.149 437.684 235.356 439.02L189.86 421.032L191.443 417.395L234.472 436.002Z" fill="#263238"/>
<path d="M217.549 416.597C217.454 416.816 216.303 416.478 214.928 416.76C213.545 417.006 212.601 417.746 212.431 417.577C212.243 417.453 213.1 416.256 214.771 415.944C216.44 415.616 217.678 416.413 217.549 416.597Z" fill="white"/>
<path d="M221.541 420.458C221.507 420.693 220.395 420.691 219.269 421.332C218.124 421.94 217.532 422.881 217.315 422.784C217.092 422.737 217.453 421.375 218.868 420.604C220.276 419.82 221.62 420.244 221.541 420.458Z" fill="white"/>
<path d="M221.993 427.241C221.773 427.208 221.902 425.976 222.954 424.985C223.999 423.986 225.236 423.92 225.256 424.143C225.309 424.376 224.377 424.761 223.526 425.588C222.657 426.394 222.223 427.306 221.993 427.241Z" fill="white"/>
<path d="M219.269 411.077C219.096 411.243 218.198 410.533 216.908 410.122C215.627 409.684 214.483 409.719 214.443 409.483C214.378 409.271 215.657 408.826 217.169 409.332C218.684 409.826 219.447 410.946 219.269 411.077Z" fill="white"/>
<path d="M243.862 266.536L227.919 331.195C227.919 331.195 199.166 379.598 194.3 403.814L220.602 414.159C220.602 414.159 239.729 367.51 245.338 358.948C248.423 354.239 251.687 350.602 254 348.281C256.092 346.182 257.614 343.584 258.364 340.717L270.434 294.584L243.862 266.536Z" fill="#263238"/>
<path d="M237.071 256.203C237.071 256.203 239.288 273.514 255.953 281.19L291.074 338.388C291.074 338.388 293.832 356.985 299.132 372.662C304.392 388.221 314.987 418.526 314.987 418.526L343.876 407.729L325.465 344.785L322.452 322.956L293.788 250.003L269.169 235.241L237.071 256.203Z" fill="#263238"/>
<path d="M237.071 256.203C237.071 256.203 237.243 256.077 237.598 255.838C237.964 255.594 238.495 255.241 239.191 254.777C240.614 253.838 242.707 252.456 245.429 250.66C250.917 247.055 258.933 241.79 269.09 235.119L269.166 235.069L269.244 235.116C276.422 239.407 284.696 244.352 293.883 249.844L293.937 249.876L293.96 249.935C301.981 270.305 311.771 295.167 322.679 322.866L322.69 322.893L322.694 322.922C323.649 329.82 324.671 337.206 325.715 344.75L325.707 344.714C330.684 361.722 336.006 379.905 341.492 398.649C342.375 401.667 343.253 404.671 344.126 407.656L344.194 407.888L343.967 407.973C334.128 411.649 324.475 415.255 315.077 418.766L314.831 418.858L314.746 418.611C309.735 404.101 304.911 390.132 300.334 376.876C299.185 373.567 298.054 370.29 297.114 367.007C296.166 363.728 295.323 360.472 294.559 357.252C293.043 350.809 291.815 344.522 290.86 338.42L290.89 338.501C276.523 315.038 264.563 295.507 255.839 281.26L255.897 281.311C251.129 279.076 247.479 275.997 244.863 272.926C242.234 269.844 240.579 266.799 239.469 264.271C238.364 261.732 237.793 259.689 237.463 258.311C237.293 257.622 237.202 257.092 237.142 256.738C237.082 256.387 237.071 256.203 237.071 256.203C237.071 256.203 237.107 256.38 237.177 256.733C237.249 257.084 237.352 257.611 237.533 258.295C237.885 259.664 238.476 261.695 239.598 264.215C240.724 266.724 242.391 269.743 245.019 272.792C247.635 275.831 251.27 278.868 256.008 281.068L256.045 281.085L256.066 281.12C264.825 295.346 276.832 314.847 291.257 338.275L291.28 338.312L291.287 338.357C292.248 344.437 293.484 350.72 295.005 357.146C295.772 360.358 296.616 363.606 297.565 366.874C298.506 370.146 299.635 373.408 300.789 376.721C305.375 389.972 310.208 403.936 315.228 418.441L314.897 418.286C324.294 414.773 333.947 411.164 343.784 407.486L343.625 407.803C342.752 404.818 341.873 401.815 340.99 398.796C335.51 380.05 330.194 361.865 325.221 344.856L325.216 344.838L325.213 344.82C324.175 337.276 323.158 329.888 322.209 322.99L322.223 323.046C311.357 295.33 301.604 270.454 293.613 250.072L293.69 250.163C284.518 244.646 276.258 239.677 269.092 235.367L269.246 235.364C259.077 241.967 251.051 247.178 245.556 250.746C242.808 252.521 240.695 253.887 239.259 254.815C238.548 255.271 238.006 255.618 237.631 255.857C237.267 256.088 237.071 256.203 237.071 256.203Z" fill="#455A64"/>
<path d="M252.494 132.628C252.494 132.628 244.078 139.112 239.985 146.349C235.084 155.014 234.557 167.872 234.403 187.826C234.26 206.292 237.021 211.419 235.954 218.375C233.869 231.967 232.318 277.58 232.318 277.58C232.318 277.58 259.286 267.209 264.556 262.628C269.826 258.047 269.826 258.047 269.826 258.047L303.614 269.213L296.795 227.697L292.119 175.945L286.128 148.494L285.081 137.726L256.133 126.015L252.494 132.628Z" fill="#455A64"/>
<path d="M284.069 137.139C284.422 137.204 283.236 139.573 281.153 143.053L281.068 143.195L280.909 143.133C277.974 141.997 274.097 140.565 269.857 139.019C265.075 137.276 260.757 135.658 257.666 134.397C256.12 133.767 254.878 133.236 254.028 132.852C253.178 132.466 252.715 132.236 252.729 132.203C252.743 132.17 253.232 132.336 254.105 132.664C255.069 133.027 256.311 133.494 257.8 134.054C261.023 135.233 265.303 136.799 270.036 138.53C274.278 140.077 278.145 141.554 281.058 142.763L280.815 142.843C282.977 139.413 284.266 137.16 284.069 137.139Z" fill="#263238"/>
<path d="M318.983 115.543C318.983 115.543 316.848 112.216 314.822 109.144C312.797 106.072 309.747 104.572 309.258 102.963C308.77 101.354 306.076 94.2418 305.645 92.4698C305.043 89.9918 305.129 87.2508 305.129 87.2508C305.129 87.2508 307.336 86.3038 308.399 89.4688C309.037 91.3688 311.073 97.8198 311.512 98.1358C311.951 98.4528 312.56 97.9888 312.56 97.9888C312.56 97.9888 310.301 91.7838 310.203 90.6138C310.105 89.4438 310.516 81.6888 310.516 81.6888C310.516 81.6888 312.125 81.1998 313.175 83.1748C314.225 85.1498 314.264 90.1848 314.264 90.1848L315.852 95.7678L315.301 90.2448L316.101 80.1008C316.101 80.1008 318.625 80.3308 319.297 83.0738C319.969 85.8168 319.081 89.6338 319.532 90.4498C319.984 91.2668 320.467 96.1618 320.467 96.1618C320.467 96.1618 321.016 84.2558 322.284 83.9138C323.552 83.5718 324.601 84.8388 324.419 87.2408C324.237 89.6428 324.191 94.7148 324.85 96.9578C325.509 99.2008 332.28 107.915 331.721 111.793C331.162 115.67 331.1 118.773 331.1 118.773H319.459L318.983 115.543Z" fill="#FFBF9D"/>
<path d="M278.299 145.523C278.948 145.768 306.66 152.628 306.66 152.628C306.66 152.628 312.851 142.592 313.754 139.728C314.657 136.864 319.513 117.511 319.513 117.511L331.225 116.404C331.225 116.404 328.264 166.3 323.985 168.988C319.707 171.676 313.02 173.039 312.543 172.889C312.066 172.739 282.598 174.791 267.044 162.542C251.492 150.291 278.299 145.523 278.299 145.523Z" fill="#FFBF9D"/>
<g opacity="0.3">
<path d="M258.434 171.93C258.434 171.93 262.411 176.973 269.765 178.593C277.119 180.213 292.762 183.075 292.762 183.075L291.998 175.398L257.952 171.754" fill="black"/>
</g>
<path d="M246.098 161.37C248.619 166.693 254.213 172.388 266.528 173.659C290.893 176.175 309.344 177.518 317.316 176.316C325.287 175.114 328.455 158.25 329.278 157.73C331.756 156.164 331.602 150.806 329.462 149.207C323.38 144.662 311.185 141.167 310.364 141.576C305.52 143.985 307.099 149.625 307.099 149.625L276.241 142.811C276.241 142.811 271.243 140.606 265.167 139.583" fill="#455A64"/>
<path d="M265.167 139.584C265.167 139.584 265.428 139.608 265.929 139.688C266.43 139.768 267.172 139.904 268.133 140.121C270.051 140.561 272.862 141.289 276.292 142.696L276.268 142.688C283.644 144.294 294.298 146.613 307.146 149.41L306.885 149.686C306.483 147.963 306.509 146.075 307.282 144.356C307.662 143.5 308.286 142.746 309.032 142.159C309.39 141.838 309.823 141.63 310.233 141.381C310.356 141.336 310.56 141.311 310.691 141.313L311.057 141.351C311.304 141.373 311.528 141.432 311.766 141.471C315.46 142.298 319.142 143.613 322.836 145.22C324.676 146.037 326.51 146.957 328.265 148.078C328.702 148.36 329.126 148.669 329.559 148.965C329.999 149.306 330.375 149.749 330.623 150.239C331.138 151.216 331.332 152.312 331.356 153.399C331.366 154.487 331.157 155.6 330.636 156.604C330.345 157.087 329.997 157.562 329.502 157.887C329.381 157.947 329.3 158.209 329.199 158.45L328.936 159.202C328.275 161.248 327.622 163.341 326.818 165.396C325.66 168.318 324.323 171.199 322.275 173.56C321.257 174.723 320.01 175.758 318.522 176.27C317.78 176.555 317.001 176.617 316.264 176.704C315.517 176.809 314.771 176.829 314.029 176.895C311.06 177.067 308.145 177.026 305.296 176.948C302.446 176.869 299.659 176.725 296.943 176.554C286.079 175.855 276.33 174.859 268.147 174.011C266.103 173.817 264.145 173.55 262.324 173.174C260.514 172.748 258.811 172.293 257.297 171.649C254.238 170.441 251.874 168.781 250.206 167.19C248.539 165.581 247.536 164.07 246.929 163.023C246.318 161.973 246.099 161.371 246.099 161.371C246.132 161.354 246.383 161.943 247.019 162.97C247.652 163.994 248.674 165.473 250.345 167.043C252.018 168.595 254.368 170.209 257.404 171.379C258.907 172.003 260.597 172.441 262.392 172.85C264.204 173.21 266.132 173.461 268.184 173.644C276.37 174.445 286.121 175.403 296.972 176.074C299.685 176.238 302.467 176.376 305.309 176.45C308.15 176.522 311.056 176.559 313.998 176.385C314.73 176.319 315.473 176.299 316.205 176.194C316.947 176.106 317.68 176.045 318.35 175.784C319.721 175.313 320.903 174.34 321.884 173.217C323.859 170.941 325.186 168.099 326.33 165.207C327.128 163.169 327.774 161.098 328.441 159.038L328.712 158.265C328.76 158.135 328.815 158.006 328.877 157.872C328.92 157.798 328.936 157.744 329.003 157.653C329.043 157.604 329.089 157.558 329.135 157.517L329.209 157.459C329.621 157.191 329.922 156.781 330.181 156.356C330.646 155.462 330.85 154.424 330.84 153.405C330.819 152.389 330.632 151.357 330.17 150.482C329.944 150.037 329.63 149.675 329.254 149.377C328.831 149.087 328.418 148.785 327.99 148.508C326.269 147.406 324.455 146.491 322.632 145.679C318.979 144.081 315.295 142.76 311.674 141.94C311.45 141.903 311.219 141.843 311.001 141.824L310.673 141.788C310.576 141.796 310.538 141.786 310.446 141.805C310.064 142.039 309.654 142.231 309.324 142.528C308.631 143.072 308.055 143.759 307.7 144.552C306.975 146.13 306.941 147.962 307.312 149.568L307.393 149.921L307.051 149.844C294.22 146.97 283.58 144.588 276.214 142.938L276.202 142.935L276.189 142.93C272.801 141.5 270.002 140.732 268.102 140.253C267.149 140.016 266.413 139.859 265.917 139.757C265.42 139.653 265.167 139.584 265.167 139.584Z" fill="#263238"/>
<path d="M317.315 159.278C317.29 159.334 316.501 159.061 315.321 158.411C314.142 157.765 312.593 156.703 311.114 155.268C309.635 153.832 308.526 152.317 307.836 151.165C307.144 150.01 306.836 149.235 306.892 149.207C307.039 149.117 308.561 152.089 311.477 154.894C314.363 157.731 317.398 159.129 317.315 159.278Z" fill="#263238"/>
<path d="M99.76 241.634C99.76 241.634 105.954 241.97 109.798 244.375C113.642 246.78 119.804 250.511 122.35 255.148C123.519 257.276 120.187 257.727 118.542 256.49C116.897 255.254 114.379 252.928 113.129 252.641C111.879 252.355 111.879 252.355 111.879 252.355C111.879 252.355 114.39 257.946 115.686 259.91C116.982 261.874 118.102 265.231 114.224 265.385C114.224 265.385 111.608 268.785 108.968 266.266C108.968 266.266 106.907 269.351 103.587 265.073C103.587 265.073 101.654 267.519 100.847 266.587C100.04 265.655 97.398 264.164 96.626 261.108C95.854 258.052 92.611 250.618 92.611 250.618L99.76 241.634Z" fill="#FFBF9D"/>
<path d="M47 160.083C47 160.083 42.163 161.394 39.208 165.935C36.825 169.597 36.099 175.983 36.777 180.66C38.218 190.603 42.783 207.401 45.344 218.179C46.229 221.903 48.04 228.555 53.372 232.092L91.257 254.811L101.387 239.776L66.845 211.627L60.02 173.045L47 160.083Z" fill="#455A64"/>
<path d="M40.448 198.025C40.456 198.023 40.498 198.157 40.571 198.42C40.647 198.706 40.751 199.094 40.883 199.592C41.153 200.65 41.542 202.17 42.04 204.12C43.032 208.086 44.46 213.794 46.229 220.869C47.133 224.37 49.207 227.967 52.465 230.751C54.06 232.179 56.038 233.223 58.003 234.433C59.976 235.623 62.009 236.848 64.096 238.106C72.443 243.147 81.656 248.711 91.389 254.589L91.039 254.666C92.198 252.946 93.435 251.108 94.684 249.255C96.888 245.984 99.059 242.764 101.17 239.632L101.22 239.976C88.212 229.267 76.413 219.554 66.982 211.789L66.93 211.746L66.915 211.682C64.653 202.167 63.011 194.379 61.981 188.961C61.461 186.253 61.104 184.137 60.874 182.699C60.771 181.997 60.691 181.452 60.633 181.058C60.582 180.688 60.57 180.495 60.57 180.495C60.57 180.495 60.621 180.681 60.691 181.048C60.762 181.439 60.861 181.981 60.988 182.678C61.255 184.109 61.647 186.217 62.2 188.917C63.296 194.317 64.995 202.09 67.302 211.586L67.235 211.479C76.687 219.219 88.511 228.901 101.547 239.576L101.729 239.725L101.598 239.92C99.488 243.053 97.319 246.274 95.116 249.545C93.867 251.398 92.629 253.235 91.47 254.955L91.332 255.16L91.12 255.032C81.397 249.138 72.193 243.56 63.854 238.505C61.771 237.24 59.742 236.008 57.772 234.812C55.825 233.603 53.821 232.536 52.191 231.066C48.88 228.212 46.782 224.527 45.885 220.957C44.181 213.863 42.806 208.141 41.85 204.164C41.391 202.205 41.033 200.678 40.784 199.614C40.672 199.111 40.584 198.719 40.52 198.43C40.465 198.165 40.44 198.027 40.448 198.025Z" fill="#263238"/>
<path d="M41.071 165.436C41.061 165.405 41.33 165.278 41.84 165.112C42.349 164.943 43.103 164.749 44.055 164.611C45.935 164.354 48.73 164.31 51.446 165.611C54.108 166.969 55.926 169.036 56.968 170.641C57.484 171.456 57.818 172.168 57.976 172.684C58.144 173.196 58.18 173.494 58.152 173.501C58.062 173.531 57.765 172.375 56.663 170.847C55.579 169.342 53.754 167.37 51.217 166.079C48.648 164.844 45.948 164.816 44.098 164.977C42.223 165.157 41.096 165.525 41.071 165.436Z" fill="#263238"/>
</svg>
